<?xml version="1.0" standalone="no"?><!DOCTYPE svg PUBLIC "-//W3C//DTD SVG 1.1//EN" "http://www.w3.org/Graphics/SVG/1.1/DTD/svg11.dtd"><svg xmlns="http://www.w3.org/2000/svg" version="1.1" width="133px" height="34.9px" viewBox="0 -5 133 34.9" style="top:-5px">  <desc>Urine osmolality value (mOsm/kg)</desc>  <defs/>  <g id="Polygon194695">    <path d="M 27.8 14.1 L 25.5 19.1 L 24.1 19.1 L 21.9 14.1 L 23.8 14.1 L 24.9 16.7 L 26 14.1 L 27.8 14.1 Z M 33.6 18.9 C 33.3 19 33.1 19 32.9 19.1 C 32.6 19.2 32.4 19.2 32.1 19.2 C 31.8 19.2 31.6 19.1 31.4 19 C 31.3 18.9 31.2 18.8 31.2 18.7 C 31 18.8 30.8 18.9 30.6 19 C 30.3 19.1 30 19.2 29.6 19.2 C 29.3 19.2 29 19.1 28.8 19 C 28.5 18.9 28.4 18.7 28.3 18.5 C 28.2 18.3 28.1 18.1 28.1 17.9 C 28.1 17.6 28.2 17.4 28.4 17.2 C 28.5 17 28.7 16.8 29 16.7 C 29.3 16.5 29.6 16.4 30.1 16.3 C 30.3 16.2 30.5 16.1 30.6 16.1 C 30.7 16 30.8 16 30.9 16 C 31 16 31 15.9 31.1 15.9 C 31.1 15.7 31 15.5 31 15.3 C 30.9 15.2 30.6 15.1 30.3 15.1 C 29.9 15.1 29.6 15.2 29.2 15.4 C 28.9 15.5 28.6 15.8 28.3 16 C 28.3 16 28.3 14.7 28.3 14.7 C 28.5 14.5 28.8 14.4 29 14.3 C 29.3 14.2 29.6 14.1 29.8 14.1 C 30.1 14 30.4 14 30.7 14 C 31.4 14 32 14.1 32.3 14.4 C 32.7 14.7 32.9 15.1 32.9 15.6 C 32.9 15.6 32.9 17.5 32.9 17.5 C 32.9 17.7 32.9 17.8 32.9 17.9 C 33 18 33 18.1 33.1 18.1 C 33.2 18.1 33.4 18 33.6 17.9 C 33.6 17.9 33.6 18.9 33.6 18.9 Z M 31.1 17.9 C 31.1 17.9 31.1 16.7 31.1 16.7 C 30.7 16.9 30.4 17 30.2 17.2 C 30 17.3 29.9 17.5 29.9 17.7 C 29.9 17.9 29.9 18 30 18.1 C 30.1 18.2 30.2 18.2 30.4 18.2 C 30.5 18.2 30.6 18.2 30.7 18.1 C 30.9 18.1 31 18 31.1 17.9 Z M 36 19.1 L 34.2 19.1 L 34.2 12.2 L 36 12.2 L 36 19.1 Z M 42.5 19.1 L 40.8 19.1 C 40.8 19.1 40.76 18.39 40.8 18.4 C 40.5 18.7 40.2 18.9 40 19 C 39.7 19.1 39.4 19.2 39 19.2 C 38.2 19.2 37.7 19 37.5 18.5 C 37.3 18.1 37.2 17.6 37.2 17 C 37.16 17.03 37.2 14.1 37.2 14.1 L 38.9 14.1 C 38.9 14.1 38.94 16.79 38.9 16.8 C 38.9 17.1 39 17.3 39.1 17.5 C 39.2 17.7 39.4 17.8 39.7 17.8 C 39.9 17.8 40.1 17.7 40.3 17.6 C 40.4 17.4 40.6 17.3 40.8 17 C 40.76 17.03 40.8 14.1 40.8 14.1 L 42.5 14.1 L 42.5 19.1 Z M 48.8 17 C 48.8 17 45.3 17.02 45.3 17 C 45.4 17.3 45.5 17.6 45.8 17.8 C 46.1 18 46.4 18.1 46.7 18.1 C 47.3 18.1 48 17.9 48.7 17.6 C 48.7 17.6 48.7 18.7 48.7 18.7 C 48.5 18.8 48.1 18.9 47.8 19 C 47.4 19.1 46.9 19.2 46.4 19.2 C 45.7 19.2 45.2 19.1 44.8 18.8 C 44.3 18.6 44 18.3 43.8 17.9 C 43.6 17.5 43.5 17.1 43.5 16.6 C 43.5 16.1 43.6 15.6 43.8 15.2 C 44 14.8 44.3 14.5 44.8 14.3 C 45.2 14.1 45.7 14 46.4 14 C 46.8 14 47.2 14.1 47.5 14.2 C 47.9 14.4 48.2 14.7 48.5 15.1 C 48.7 15.5 48.8 16 48.8 16.7 C 48.85 16.66 48.8 17 48.8 17 Z M 47.2 16.1 C 47.2 15.8 47.1 15.6 46.9 15.4 C 46.8 15.2 46.5 15.1 46.2 15.1 C 45.9 15.1 45.7 15.2 45.5 15.4 C 45.3 15.6 45.2 15.8 45.2 16.1 C 45.2 16.1 47.2 16.1 47.2 16.1 Z M 56.4 21.5 C 56.4 21.5 55.1 21.5 55.1 21.5 C 54.9 21.3 54.6 21.1 54.3 20.8 C 54.1 20.6 53.8 20.2 53.5 19.9 C 53.2 19.5 53 19 52.8 18.5 C 52.6 18 52.5 17.4 52.5 16.8 C 52.5 16.1 52.7 15.4 53 14.7 C 53.3 14.1 53.6 13.6 54 13.2 C 54.3 12.9 54.7 12.5 55.1 12.2 C 55.1 12.2 56.4 12.2 56.4 12.2 C 56 12.6 55.7 12.9 55.5 13.3 C 55.2 13.7 54.9 14.2 54.7 14.8 C 54.5 15.4 54.4 16.1 54.4 16.8 C 54.4 17.6 54.5 18.3 54.7 18.9 C 54.9 19.5 55.2 20 55.4 20.3 C 55.7 20.7 56 21.1 56.4 21.5 Z M 65.6 19.1 L 63.8 19.1 C 63.8 19.1 63.82 16.42 63.8 16.4 C 63.8 16.1 63.8 15.8 63.6 15.6 C 63.5 15.4 63.3 15.4 63.1 15.4 C 62.8 15.4 62.6 15.4 62.5 15.6 C 62.3 15.7 62.2 15.9 62 16.1 C 62 16.15 62 19.1 62 19.1 L 60.2 19.1 C 60.2 19.1 60.22 16.42 60.2 16.4 C 60.2 16.1 60.2 15.8 60.1 15.6 C 59.9 15.4 59.8 15.4 59.5 15.4 C 59.3 15.4 59.2 15.4 59.1 15.4 C 59 15.5 58.9 15.5 58.8 15.6 C 58.8 15.7 58.7 15.8 58.6 15.9 C 58.5 16 58.4 16.1 58.4 16.1 C 58.41 16.15 58.4 19.1 58.4 19.1 L 56.6 19.1 L 56.6 14.1 L 58.4 14.1 C 58.4 14.1 58.41 14.79 58.4 14.8 C 58.7 14.5 58.9 14.3 59.2 14.2 C 59.5 14 59.8 14 60.2 14 C 60.4 14 60.5 14 60.7 14 C 60.8 14.1 61 14.1 61.1 14.2 C 61.3 14.3 61.4 14.4 61.5 14.5 C 61.7 14.6 61.8 14.8 61.8 15 C 62.1 14.6 62.4 14.4 62.7 14.2 C 63 14.1 63.4 14 63.8 14 C 64.2 14 64.5 14.1 64.8 14.2 C 65.1 14.4 65.3 14.6 65.4 14.9 C 65.5 15.2 65.6 15.6 65.6 16 C 65.6 16.03 65.6 19.1 65.6 19.1 Z M 74.3 15.7 C 74.3 16.3 74.1 16.9 73.8 17.4 C 73.5 18 73.1 18.4 72.5 18.7 C 71.9 19 71.2 19.2 70.4 19.2 C 69.5 19.2 68.8 19 68.2 18.7 C 67.7 18.4 67.2 17.9 66.9 17.4 C 66.6 16.9 66.5 16.3 66.5 15.7 C 66.5 15.1 66.6 14.5 66.9 13.9 C 67.2 13.4 67.6 13 68.2 12.6 C 68.8 12.3 69.5 12.2 70.4 12.2 C 71 12.2 71.6 12.2 72.1 12.4 C 72.6 12.6 73 12.9 73.3 13.2 C 73.6 13.5 73.9 13.9 74 14.3 C 74.2 14.8 74.3 15.2 74.3 15.7 Z M 72.2 15.7 C 72.2 15.4 72.1 15.2 72.1 15 C 72 14.8 71.9 14.6 71.7 14.4 C 71.6 14.3 71.4 14.1 71.2 14 C 70.9 14 70.7 13.9 70.4 13.9 C 69.8 13.9 69.4 14.1 69.1 14.4 C 68.8 14.7 68.6 15.1 68.6 15.7 C 68.6 16.2 68.8 16.6 69.1 16.9 C 69.4 17.3 69.8 17.4 70.4 17.4 C 70.8 17.4 71.1 17.4 71.4 17.2 C 71.6 17.1 71.8 16.9 72 16.6 C 72.1 16.3 72.2 16 72.2 15.7 Z M 79.2 17.6 C 79.2 18.1 79 18.5 78.7 18.8 C 78.4 19 77.9 19.2 77.2 19.2 C 76.8 19.2 76.5 19.2 76.2 19.1 C 75.9 19 75.6 18.9 75.3 18.8 C 75.3 18.8 75.3 17.5 75.3 17.5 C 75.6 17.7 75.8 17.8 76 17.9 C 76.3 18 76.5 18.1 76.8 18.1 C 77.2 18.1 77.4 17.9 77.4 17.7 C 77.4 17.6 77.4 17.5 77.3 17.5 C 77.3 17.4 77.2 17.3 77 17.3 C 76.8 17.2 76.6 17.1 76.4 17 C 76 16.8 75.8 16.6 75.5 16.4 C 75.3 16.1 75.2 15.8 75.2 15.5 C 75.2 15.2 75.3 15 75.4 14.8 C 75.6 14.5 75.8 14.3 76.1 14.2 C 76.4 14.1 76.8 14 77.2 14 C 77.3 14 77.5 14 77.6 14 C 77.8 14 78 14.1 78.2 14.1 C 78.5 14.2 78.7 14.3 79 14.4 C 79 14.4 79 15.6 79 15.6 C 78.8 15.6 78.8 15.5 78.7 15.5 C 78.6 15.4 78.5 15.4 78.4 15.3 C 78.3 15.3 78.1 15.2 78 15.2 C 77.8 15.1 77.7 15.1 77.5 15.1 C 77.3 15.1 77.1 15.2 77.1 15.2 C 77 15.3 77 15.4 77 15.5 C 77 15.6 77 15.6 77.1 15.7 C 77.2 15.8 77.3 15.9 77.6 16 C 78 16.1 78.3 16.3 78.6 16.4 C 78.8 16.6 79 16.8 79.1 17 C 79.2 17.1 79.2 17.4 79.2 17.6 Z M 89.2 19.1 L 87.4 19.1 C 87.4 19.1 87.37 16.42 87.4 16.4 C 87.4 16.1 87.3 15.8 87.2 15.6 C 87.1 15.4 86.9 15.4 86.6 15.4 C 86.4 15.4 86.2 15.4 86 15.6 C 85.9 15.7 85.7 15.9 85.6 16.1 C 85.56 16.15 85.6 19.1 85.6 19.1 L 83.8 19.1 C 83.8 19.1 83.77 16.42 83.8 16.4 C 83.8 16.1 83.7 15.8 83.6 15.6 C 83.5 15.4 83.3 15.4 83 15.4 C 82.9 15.4 82.8 15.4 82.7 15.4 C 82.6 15.5 82.5 15.5 82.4 15.6 C 82.3 15.7 82.2 15.8 82.1 15.9 C 82 16 82 16.1 82 16.1 C 81.96 16.15 82 19.1 82 19.1 L 80.2 19.1 L 80.2 14.1 L 82 14.1 C 82 14.1 81.96 14.79 82 14.8 C 82.2 14.5 82.5 14.3 82.8 14.2 C 83.1 14 83.4 14 83.7 14 C 83.9 14 84.1 14 84.2 14 C 84.4 14.1 84.5 14.1 84.7 14.2 C 84.8 14.3 85 14.4 85.1 14.5 C 85.2 14.6 85.3 14.8 85.4 15 C 85.7 14.6 86 14.4 86.3 14.2 C 86.6 14.1 86.9 14 87.3 14 C 87.7 14 88.1 14.1 88.4 14.2 C 88.6 14.4 88.8 14.6 89 14.9 C 89.1 15.2 89.2 15.6 89.2 16 C 89.15 16.03 89.2 19.1 89.2 19.1 Z M 94.8 12.2 L 91.1 19.2 L 89.8 19.2 L 93.5 12.2 L 94.8 12.2 Z M 101.6 19.1 L 99.3 19.1 L 97.4 16.7 L 97.4 19.1 L 95.6 19.1 L 95.6 12.2 L 97.4 12.2 L 97.4 16.3 L 99.1 14.1 L 101.3 14.1 L 99.3 16.4 L 101.6 19.1 Z M 106.9 15.1 C 106.9 15.1 106.01 15.14 106 15.1 C 106.3 15.4 106.5 15.7 106.5 16.1 C 106.5 16.3 106.4 16.5 106.3 16.7 C 106.3 16.9 106.1 17.1 106 17.2 C 105.8 17.4 105.6 17.5 105.3 17.6 C 105.1 17.7 104.8 17.8 104.5 17.8 C 104.1 17.8 103.9 17.9 103.9 18.1 C 103.9 18.2 103.9 18.2 103.9 18.3 C 104 18.3 104.1 18.3 104.2 18.4 C 104.3 18.4 104.5 18.4 104.8 18.4 C 105.1 18.5 105.4 18.5 105.6 18.6 C 105.9 18.6 106.1 18.8 106.4 19 C 106.6 19.2 106.7 19.5 106.7 19.9 C 106.7 20.2 106.6 20.5 106.4 20.7 C 106.3 21 106 21.1 105.6 21.3 C 105.2 21.4 104.7 21.5 104.1 21.5 C 103.2 21.5 102.6 21.4 102.1 21.1 C 101.7 20.9 101.5 20.6 101.5 20.2 C 101.5 20 101.5 19.9 101.6 19.8 C 101.6 19.6 101.8 19.5 101.9 19.4 C 102.1 19.2 102.4 19.2 102.7 19.1 C 102.6 19.1 102.5 19 102.4 18.9 C 102.3 18.7 102.3 18.6 102.3 18.5 C 102.3 18.3 102.3 18.1 102.5 17.9 C 102.6 17.8 102.8 17.7 103 17.6 C 102.7 17.5 102.3 17.3 102.1 17.1 C 101.8 16.8 101.7 16.4 101.7 16 C 101.7 15.7 101.7 15.4 101.8 15.1 C 102 14.9 102.1 14.7 102.4 14.5 C 102.6 14.4 102.9 14.3 103.2 14.2 C 103.5 14.1 103.8 14.1 104.1 14.1 C 104.13 14.07 106.9 14.1 106.9 14.1 L 106.9 15.1 Z M 104.9 16 C 104.9 15.7 104.8 15.5 104.7 15.4 C 104.5 15.2 104.3 15.2 104.1 15.2 C 103.8 15.2 103.6 15.2 103.4 15.4 C 103.3 15.6 103.2 15.8 103.2 16 C 103.2 16.2 103.2 16.3 103.3 16.4 C 103.4 16.5 103.5 16.6 103.6 16.7 C 103.7 16.8 103.9 16.8 104 16.8 C 104.3 16.8 104.5 16.7 104.7 16.6 C 104.8 16.4 104.9 16.2 104.9 16 Z M 105.3 20 C 105.3 19.8 105.2 19.7 104.9 19.6 C 104.7 19.6 104.4 19.5 104.2 19.5 C 103.8 19.5 103.5 19.6 103.3 19.7 C 103.1 19.7 103 19.9 103 20.1 C 103 20.4 103.4 20.6 104.2 20.6 C 104.5 20.6 104.8 20.6 105 20.5 C 105.2 20.4 105.3 20.2 105.3 20 Z M 110.5 16.8 C 110.5 17.4 110.4 17.9 110.2 18.5 C 110 19 109.8 19.4 109.5 19.8 C 109.2 20.2 108.9 20.5 108.7 20.8 C 108.4 21.1 108.2 21.3 107.9 21.5 C 107.9 21.5 106.6 21.5 106.6 21.5 C 107 21.1 107.3 20.7 107.6 20.3 C 107.8 20 108.1 19.5 108.3 18.9 C 108.5 18.3 108.6 17.6 108.6 16.8 C 108.6 16 108.5 15.3 108.3 14.7 C 108.1 14.2 107.8 13.7 107.6 13.3 C 107.3 13 107 12.6 106.6 12.2 C 106.6 12.2 107.9 12.2 107.9 12.2 C 108.3 12.4 108.6 12.8 109 13.1 C 109.4 13.5 109.7 14.1 110 14.7 C 110.3 15.3 110.5 16 110.5 16.8 Z " stroke="none" fill="#fff"/>  </g>  <g id="Polygon194694">    <path d="M 31.6 3.9 C 31.6 4.5 31.5 5 31.3 5.4 C 31 5.8 30.8 6.1 30.4 6.4 C 30 6.6 29.6 6.8 29.2 6.9 C 28.8 7 28.4 7 28 7 C 27.4 7 26.8 6.9 26.3 6.7 C 25.7 6.5 25.3 6.2 24.9 5.7 C 24.5 5.3 24.3 4.6 24.3 3.9 C 24.35 3.88 24.3 0.1 24.3 0.1 L 26.4 0.1 C 26.4 0.1 26.41 3.34 26.4 3.3 C 26.4 3.8 26.5 4.2 26.6 4.5 C 26.7 4.8 26.9 5 27.2 5.1 C 27.4 5.2 27.7 5.3 28 5.3 C 28.3 5.3 28.5 5.2 28.8 5.1 C 29 5 29.2 4.8 29.3 4.5 C 29.5 4.2 29.5 3.8 29.5 3.4 C 29.52 3.35 29.5 0.1 29.5 0.1 L 31.6 0.1 C 31.6 0.1 31.59 3.88 31.6 3.9 Z M 37.3 2.2 C 37.3 2.2 36.7 4 36.7 4 C 36.4 3.7 36.1 3.6 35.9 3.6 C 35.6 3.6 35.4 3.7 35.2 3.8 C 35 4 34.9 4.3 34.7 4.8 C 34.69 4.78 34.7 6.9 34.7 6.9 L 32.9 6.9 L 32.9 1.9 L 34.7 1.9 C 34.7 1.9 34.69 3.13 34.7 3.1 C 34.8 2.8 35 2.5 35.3 2.3 C 35.6 2 35.9 1.8 36.3 1.8 C 36.5 1.8 36.7 1.9 36.8 1.9 C 37 2 37.1 2.1 37.3 2.2 Z M 39.2 0.8 C 39.2 1 39.1 1.1 39 1.3 C 38.8 1.4 38.7 1.5 38.5 1.5 C 38.3 1.5 38.2 1.5 38.1 1.4 C 38 1.3 37.9 1.2 37.8 1.1 C 37.7 1 37.7 0.9 37.7 0.8 C 37.7 0.5 37.8 0.4 37.9 0.2 C 38.1 0.1 38.3 0 38.5 0 C 38.7 0 38.8 0.1 39 0.2 C 39.1 0.4 39.2 0.5 39.2 0.8 Z M 39.4 6.9 L 37.6 6.9 L 37.6 1.9 L 39.4 1.9 L 39.4 6.9 Z M 46 6.9 L 44.2 6.9 C 44.2 6.9 44.18 4.23 44.2 4.2 C 44.2 4 44.1 3.7 44 3.5 C 44 3.3 43.8 3.2 43.4 3.2 C 43.3 3.2 43.2 3.2 43.1 3.3 C 43 3.3 42.9 3.4 42.8 3.5 C 42.7 3.6 42.6 3.7 42.5 3.7 C 42.5 3.8 42.4 3.9 42.4 4 C 42.36 3.99 42.4 6.9 42.4 6.9 L 40.6 6.9 L 40.6 1.9 L 42.4 1.9 C 42.4 1.9 42.36 2.64 42.4 2.6 C 42.6 2.3 42.9 2.1 43.2 2 C 43.5 1.9 43.8 1.8 44.1 1.8 C 45.4 1.8 46 2.5 46 4 C 45.96 3.99 46 6.9 46 6.9 Z M 52.2 4.9 C 52.2 4.9 48.65 4.86 48.6 4.9 C 48.7 5.2 48.9 5.4 49.2 5.6 C 49.4 5.8 49.7 5.9 50.1 5.9 C 50.7 5.9 51.3 5.7 52.1 5.4 C 52.1 5.4 52.1 6.5 52.1 6.5 C 51.8 6.6 51.5 6.8 51.1 6.9 C 50.7 7 50.3 7 49.7 7 C 49.1 7 48.6 6.9 48.1 6.7 C 47.7 6.5 47.4 6.1 47.1 5.8 C 46.9 5.4 46.8 4.9 46.8 4.4 C 46.8 3.9 46.9 3.5 47.1 3.1 C 47.4 2.7 47.7 2.4 48.1 2.2 C 48.6 1.9 49.1 1.8 49.7 1.8 C 50.1 1.8 50.5 1.9 50.9 2.1 C 51.3 2.3 51.6 2.6 51.8 3 C 52.1 3.4 52.2 3.9 52.2 4.5 C 52.19 4.51 52.2 4.9 52.2 4.9 Z M 50.5 4 C 50.5 3.7 50.4 3.4 50.3 3.2 C 50.1 3 49.9 2.9 49.6 2.9 C 49.3 2.9 49.1 3 48.9 3.2 C 48.7 3.4 48.6 3.7 48.6 4 C 48.6 4 50.5 4 50.5 4 Z M 61.6 4.4 C 61.6 4.9 61.5 5.4 61.3 5.8 C 61.1 6.2 60.8 6.5 60.3 6.7 C 59.9 6.9 59.4 7 58.7 7 C 58.1 7 57.6 6.9 57.2 6.7 C 56.7 6.5 56.4 6.2 56.2 5.8 C 56 5.4 55.9 4.9 55.9 4.4 C 55.9 4 55.9 3.7 56 3.4 C 56.2 3.1 56.3 2.8 56.6 2.6 C 56.8 2.3 57.1 2.1 57.5 2 C 57.9 1.9 58.3 1.8 58.7 1.8 C 59.2 1.8 59.6 1.9 60 2 C 60.4 2.2 60.7 2.3 60.9 2.6 C 61.1 2.8 61.3 3.1 61.5 3.4 C 61.6 3.7 61.6 4 61.6 4.4 Z M 59.8 4.4 C 59.8 4 59.7 3.7 59.5 3.5 C 59.3 3.3 59.1 3.2 58.7 3.2 C 58.4 3.2 58.2 3.3 58 3.5 C 57.8 3.7 57.7 4 57.7 4.4 C 57.7 4.8 57.8 5.1 58 5.4 C 58.2 5.6 58.4 5.7 58.7 5.7 C 59.1 5.7 59.3 5.6 59.5 5.4 C 59.7 5.1 59.8 4.8 59.8 4.4 Z M 66.5 5.5 C 66.5 5.9 66.3 6.3 66 6.6 C 65.7 6.9 65.1 7 64.5 7 C 64.1 7 63.8 7 63.5 6.9 C 63.2 6.9 62.9 6.8 62.5 6.6 C 62.5 6.6 62.5 5.4 62.5 5.4 C 62.8 5.6 63.1 5.7 63.3 5.8 C 63.5 5.9 63.8 5.9 64 5.9 C 64.5 5.9 64.7 5.8 64.7 5.5 C 64.7 5.5 64.7 5.4 64.6 5.3 C 64.6 5.3 64.4 5.2 64.3 5.1 C 64.1 5 63.9 4.9 63.6 4.8 C 63.3 4.7 63 4.5 62.8 4.2 C 62.6 4 62.5 3.7 62.5 3.3 C 62.5 3.1 62.5 2.8 62.7 2.6 C 62.8 2.4 63.1 2.2 63.4 2 C 63.7 1.9 64.1 1.8 64.5 1.8 C 64.6 1.8 64.7 1.8 64.9 1.8 C 65.1 1.9 65.3 1.9 65.5 2 C 65.8 2 66 2.1 66.2 2.2 C 66.2 2.2 66.2 3.5 66.2 3.5 C 66.1 3.4 66 3.3 66 3.3 C 65.9 3.3 65.8 3.2 65.7 3.2 C 65.6 3.1 65.4 3.1 65.3 3 C 65.1 3 64.9 3 64.8 3 C 64.6 3 64.4 3 64.4 3.1 C 64.3 3.2 64.2 3.2 64.2 3.3 C 64.2 3.4 64.3 3.5 64.4 3.5 C 64.4 3.6 64.6 3.7 64.9 3.8 C 65.3 4 65.6 4.1 65.8 4.3 C 66.1 4.4 66.2 4.6 66.3 4.8 C 66.4 5 66.5 5.2 66.5 5.5 Z M 76.4 6.9 L 74.7 6.9 C 74.7 6.9 74.65 4.26 74.7 4.3 C 74.7 3.9 74.6 3.6 74.5 3.5 C 74.4 3.3 74.2 3.2 73.9 3.2 C 73.7 3.2 73.5 3.3 73.3 3.4 C 73.2 3.6 73 3.8 72.8 4 C 72.84 3.99 72.8 6.9 72.8 6.9 L 71.1 6.9 C 71.1 6.9 71.06 4.26 71.1 4.3 C 71.1 3.9 71 3.7 70.9 3.5 C 70.8 3.3 70.6 3.2 70.3 3.2 C 70.2 3.2 70.1 3.2 70 3.3 C 69.8 3.3 69.8 3.4 69.7 3.5 C 69.6 3.5 69.5 3.6 69.4 3.7 C 69.3 3.9 69.3 4 69.2 4 C 69.24 3.99 69.2 6.9 69.2 6.9 L 67.5 6.9 L 67.5 1.9 L 69.2 1.9 C 69.2 1.9 69.24 2.64 69.2 2.6 C 69.5 2.4 69.8 2.1 70.1 2 C 70.3 1.9 70.7 1.8 71 1.8 C 71.2 1.8 71.4 1.8 71.5 1.9 C 71.7 1.9 71.8 2 72 2 C 72.1 2.1 72.2 2.2 72.4 2.3 C 72.5 2.5 72.6 2.6 72.7 2.8 C 73 2.5 73.2 2.2 73.6 2.1 C 73.9 1.9 74.2 1.8 74.6 1.8 C 75 1.8 75.4 1.9 75.6 2.1 C 75.9 2.2 76.1 2.5 76.2 2.8 C 76.4 3.1 76.4 3.4 76.4 3.9 C 76.43 3.88 76.4 6.9 76.4 6.9 Z M 83.1 4.4 C 83.1 4.9 82.9 5.4 82.7 5.8 C 82.5 6.2 82.2 6.5 81.7 6.7 C 81.3 6.9 80.8 7 80.2 7 C 79.5 7 79 6.9 78.6 6.7 C 78.1 6.5 77.8 6.2 77.6 5.8 C 77.4 5.4 77.3 4.9 77.3 4.4 C 77.3 4 77.3 3.7 77.5 3.4 C 77.6 3.1 77.8 2.8 78 2.6 C 78.3 2.3 78.6 2.1 78.9 2 C 79.3 1.9 79.7 1.8 80.2 1.8 C 80.6 1.8 81.1 1.9 81.4 2 C 81.8 2.2 82.1 2.3 82.3 2.6 C 82.6 2.8 82.7 3.1 82.9 3.4 C 83 3.7 83.1 4 83.1 4.4 Z M 81.2 4.4 C 81.2 4 81.1 3.7 80.9 3.5 C 80.7 3.3 80.5 3.2 80.2 3.2 C 79.8 3.2 79.6 3.3 79.4 3.5 C 79.2 3.7 79.2 4 79.2 4.4 C 79.2 4.8 79.2 5.1 79.4 5.4 C 79.6 5.6 79.8 5.7 80.2 5.7 C 80.5 5.7 80.7 5.6 80.9 5.4 C 81.1 5.1 81.2 4.8 81.2 4.4 Z M 85.8 6.9 L 84.1 6.9 L 84.1 0.1 L 85.8 0.1 L 85.8 6.9 Z M 92.3 6.7 C 92 6.8 91.8 6.9 91.6 6.9 C 91.4 7 91.1 7 90.8 7 C 90.5 7 90.3 7 90.2 6.9 C 90.1 6.8 90 6.7 89.9 6.5 C 89.7 6.7 89.5 6.8 89.3 6.9 C 89 7 88.7 7 88.4 7 C 88 7 87.7 7 87.5 6.8 C 87.2 6.7 87.1 6.6 87 6.4 C 86.9 6.2 86.9 6 86.9 5.8 C 86.9 5.5 86.9 5.2 87.1 5 C 87.3 4.8 87.5 4.6 87.7 4.5 C 88 4.4 88.3 4.2 88.8 4.1 C 89 4 89.2 4 89.3 3.9 C 89.5 3.9 89.6 3.9 89.6 3.8 C 89.7 3.8 89.8 3.8 89.8 3.7 C 89.8 3.5 89.8 3.3 89.7 3.2 C 89.6 3 89.4 3 89 3 C 88.6 3 88.3 3 87.9 3.2 C 87.6 3.4 87.3 3.6 87 3.9 C 87 3.9 87 2.5 87 2.5 C 87.3 2.4 87.5 2.2 87.7 2.1 C 88 2 88.3 1.9 88.6 1.9 C 88.8 1.8 89.1 1.8 89.4 1.8 C 90.1 1.8 90.7 2 91.1 2.2 C 91.4 2.5 91.6 2.9 91.6 3.4 C 91.6 3.4 91.6 5.4 91.6 5.4 C 91.6 5.5 91.6 5.7 91.7 5.8 C 91.7 5.9 91.8 5.9 91.8 5.9 C 92 5.9 92.1 5.9 92.3 5.8 C 92.3 5.8 92.3 6.7 92.3 6.7 Z M 89.8 5.7 C 89.8 5.7 89.8 4.5 89.8 4.5 C 89.4 4.7 89.1 4.9 88.9 5 C 88.7 5.1 88.6 5.3 88.6 5.6 C 88.6 5.7 88.7 5.9 88.8 5.9 C 88.8 6 89 6.1 89.1 6.1 C 89.2 6.1 89.3 6 89.5 6 C 89.6 5.9 89.7 5.8 89.8 5.7 Z M 94.7 6.9 L 92.9 6.9 L 92.9 0.1 L 94.7 0.1 L 94.7 6.9 Z M 97.7 0.8 C 97.7 1 97.6 1.1 97.5 1.3 C 97.3 1.4 97.1 1.5 96.9 1.5 C 96.8 1.5 96.7 1.5 96.6 1.4 C 96.4 1.3 96.4 1.2 96.3 1.1 C 96.2 1 96.2 0.9 96.2 0.8 C 96.2 0.5 96.3 0.4 96.4 0.2 C 96.6 0.1 96.7 0 96.9 0 C 97.1 0 97.3 0.1 97.5 0.2 C 97.6 0.4 97.7 0.5 97.7 0.8 Z M 97.8 6.9 L 96 6.9 L 96 1.9 L 97.8 1.9 L 97.8 6.9 Z M 103 6.7 C 102.8 6.7 102.6 6.8 102.3 6.9 C 101.9 7 101.6 7 101.3 7 C 100.1 7 99.4 6.4 99.4 5.2 C 99.41 5.16 99.4 3.2 99.4 3.2 L 98.6 3.2 L 98.6 2.8 L 101 0.4 L 101.2 0.4 L 101.2 1.9 L 102.9 1.9 L 102.9 3.2 L 101.2 3.2 C 101.2 3.2 101.2 4.76 101.2 4.8 C 101.2 5 101.2 5.1 101.2 5.2 C 101.3 5.3 101.3 5.4 101.4 5.5 C 101.5 5.6 101.7 5.6 101.9 5.6 C 102.2 5.6 102.6 5.5 103 5.3 C 103 5.3 103 6.7 103 6.7 Z M 109.2 1.9 L 105.8 9.2 L 104 9.2 L 105.4 6.3 L 103.4 1.9 L 105.3 1.9 L 106.3 4.4 L 107.5 1.9 L 109.2 1.9 Z " stroke="none" fill="#fff"/>  </g></svg>