<?xml version="1.0" standalone="no"?><!DOCTYPE svg PUBLIC "-//W3C//DTD SVG 1.1//EN" "http://www.w3.org/Graphics/SVG/1.1/DTD/svg11.dtd"><svg xmlns="http://www.w3.org/2000/svg" version="1.1" width="199px" height="93.9px" viewBox="0 -3 199 93.9" style="top:-3px">  <desc>Not produced by the body Important to consume within diet Histidine, isoleucine, leucine, lysine, methionine, phenyla...</desc>  <defs/>  <g id="Polygon163319">    <path d="M 62.1 74.7 C 62.1 75.7 62.6 76.2 63.6 76.2 C 64.14 76.18 64.5 76.1 64.5 76.1 L 64.5 75.3 L 64.4 75.2 C 64.4 75.2 64.12 75.26 63.8 75.3 C 63.4 75.3 63.2 75.1 63.2 74.7 C 63.17 74.68 63.2 71.7 63.2 71.7 L 64.4 71.7 L 64.4 70.9 L 63.2 70.9 L 63.2 69.8 L 62.1 69.8 L 62.1 70.9 L 61.5 70.9 L 61.5 71.7 L 62.1 71.7 C 62.1 71.7 62.1 74.68 62.1 74.7 Z M 68.1 71.8 C 67.6 71.8 67.1 71.8 66.5 72.4 C 66.47 72.4 66.5 76.1 66.5 76.1 L 65.4 76.1 L 65.4 70.9 L 66.4 70.9 L 66.5 71 L 66.4 71.6 C 66.4 71.6 66.49 71.55 66.5 71.6 C 66.4 71.6 67.1 70.7 68.2 70.8 C 68.15 70.78 68.2 71.8 68.2 71.8 C 68.2 71.8 68.08 71.85 68.1 71.8 Z M 70.1 74.6 C 70.1 75.1 70.4 75.3 70.8 75.3 C 71.2 75.3 71.6 75.1 72 74.6 C 72.02 74.6 72 70.9 72 70.9 L 73.1 70.9 C 73.1 70.9 73.08 76.5 73.1 76.5 C 73.1 77.7 72 78 71.1 78 C 70.21 78.05 69.4 77.9 69.4 77.9 L 69.4 77.1 L 69.5 77 C 69.5 77 70.18 77.09 70.9 77.1 C 71.5 77.1 72 77 72 76.2 C 72.02 76.19 72 76 72 76 L 72 75.4 L 72 75.4 C 72 75.4 71.54 76.18 70.5 76.2 C 69.7 76.2 69 75.9 69 74.6 C 69.04 74.64 69 70.9 69 70.9 L 70.1 70.9 C 70.1 70.9 70.1 74.57 70.1 74.6 Z M 75.4 72.4 C 75.8 71.8 76.2 71.7 76.6 71.7 C 77 71.7 77.3 71.8 77.3 72.4 C 77.3 72.4 77.3 74.3 77.3 74.3 C 77.3 75 76.9 75.2 76.4 75.2 C 76.1 75.2 75.7 75.2 75.4 75.2 C 75.4 75.2 75.4 72.4 75.4 72.4 Z M 74.4 77.9 L 75.4 77.9 C 75.4 77.9 75.42 76.13 75.4 76.1 C 75.7 76.2 76 76.2 76.4 76.2 C 77.3 76.2 78.3 75.8 78.3 74.6 C 78.3 74.6 78.3 72.3 78.3 72.3 C 78.3 71.1 77.8 70.8 76.9 70.8 C 75.9 70.78 75.4 71.6 75.4 71.6 L 75.4 71.6 L 75.4 71 L 75.3 70.9 L 74.4 70.9 L 74.4 77.9 Z M 79.6 74.7 C 79.6 75.7 80.1 76.2 81 76.2 C 81.59 76.18 82 76.1 82 76.1 L 82 75.3 L 81.9 75.2 C 81.9 75.2 81.58 75.26 81.2 75.3 C 80.8 75.3 80.6 75.1 80.6 74.7 C 80.62 74.68 80.6 71.7 80.6 71.7 L 81.9 71.7 L 81.9 70.9 L 80.6 70.9 L 80.6 69.8 L 79.6 69.8 L 79.6 70.9 L 79 70.9 L 79 71.7 L 79.6 71.7 C 79.6 71.7 79.55 74.68 79.6 74.7 Z M 85.5 74.4 C 85.5 75 85.2 75.3 84.6 75.3 C 83.9 75.3 83.6 75 83.6 74.4 C 83.6 74.4 83.6 72.6 83.6 72.6 C 83.6 72 83.9 71.7 84.6 71.7 C 85.1 71.7 85.5 72 85.5 72.6 C 85.5 72.6 85.5 74.4 85.5 74.4 Z M 86.6 72.4 C 86.6 71.1 85.5 70.8 84.6 70.8 C 83.6 70.8 82.5 71.1 82.5 72.4 C 82.5 72.4 82.5 74.5 82.5 74.5 C 82.5 75.8 83.6 76.2 84.6 76.2 C 85.5 76.2 86.6 75.9 86.6 74.5 C 86.6 74.5 86.6 72.4 86.6 72.4 Z M 88.8 72.4 C 89.2 71.8 89.6 71.7 90 71.7 C 90.4 71.7 90.7 71.8 90.7 72.4 C 90.7 72.4 90.7 74.3 90.7 74.3 C 90.7 75 90.3 75.2 89.8 75.2 C 89.5 75.2 89.1 75.2 88.8 75.2 C 88.8 75.2 88.8 72.4 88.8 72.4 Z M 87.7 77.9 L 88.8 77.9 C 88.8 77.9 88.8 76.13 88.8 76.1 C 89.1 76.2 89.4 76.2 89.7 76.2 C 90.7 76.2 91.7 75.8 91.7 74.6 C 91.7 74.6 91.7 72.3 91.7 72.3 C 91.7 71.1 91.1 70.8 90.3 70.8 C 89.27 70.78 88.8 71.6 88.8 71.6 L 88.8 71.6 L 88.8 71 L 88.7 70.9 L 87.7 70.9 L 87.7 77.9 Z M 93.9 71.6 C 93.9 71.6 94.36 70.78 95.4 70.8 C 96.2 70.8 96.9 71.1 96.9 72.3 C 96.86 72.33 96.9 76.1 96.9 76.1 L 95.8 76.1 C 95.8 76.1 95.8 72.4 95.8 72.4 C 95.8 71.8 95.5 71.7 95.1 71.7 C 94.7 71.7 94.3 71.9 93.9 72.4 C 93.89 72.37 93.9 76.1 93.9 76.1 L 92.8 76.1 L 92.8 68.8 L 93.9 68.8 L 93.9 71 L 93.9 71.6 L 93.9 71.6 Z M 101.9 76.1 L 100.9 76.1 L 100.9 76 L 100.9 75.4 L 100.8 75.4 C 100.8 75.4 100.38 76.18 99.4 76.2 C 98.6 76.2 97.9 75.9 97.9 74.6 C 97.9 73.4 98.8 73 99.8 73 C 99.8 72.97 100.9 73 100.9 73 C 100.9 73 100.87 72.48 100.9 72.5 C 100.9 72 100.5 71.7 99.9 71.7 C 99.21 71.7 98.4 71.8 98.4 71.8 L 98.3 71.7 L 98.3 70.9 C 98.3 70.9 99.17 70.78 100.1 70.8 C 100.9 70.8 101.9 71 101.9 72.2 C 101.93 72.24 101.9 76.1 101.9 76.1 Z M 100.9 73.8 C 100.9 73.8 100.09 73.81 100.1 73.8 C 99.3 73.8 99 74 99 74.6 C 99 75.1 99.4 75.3 99.8 75.3 C 100.1 75.3 100.5 75.2 100.9 74.7 C 100.87 74.71 100.9 73.8 100.9 73.8 Z M 107.2 76.1 L 106.2 76.1 C 106.2 76.1 106.16 72.4 106.2 72.4 C 106.2 71.8 105.8 71.7 105.4 71.7 C 105 71.7 104.7 71.9 104.2 72.4 C 104.24 72.37 104.2 76.1 104.2 76.1 L 103.2 76.1 L 103.2 70.9 L 104.2 70.9 L 104.2 71 L 104.2 71.6 L 104.3 71.6 C 104.3 71.6 104.71 70.78 105.7 70.8 C 106.6 70.8 107.2 71.1 107.2 72.3 C 107.21 72.33 107.2 76.1 107.2 76.1 Z M 109.5 76.1 L 109.4 77.5 L 108.9 77.5 L 108.9 76.1 L 108.5 76.1 L 108.5 75 L 109.5 75 L 109.5 76.1 Z M 115.8 76.1 L 117.5 70.9 L 116.4 70.9 L 115.2 74.8 L 113.9 70.9 L 112.8 70.9 L 114.5 76.1 L 115.8 76.1 Z M 121.9 76.1 L 120.9 76.1 L 120.8 76 L 120.8 75.4 L 120.8 75.4 C 120.8 75.4 120.32 76.18 119.3 76.2 C 118.5 76.2 117.8 75.9 117.8 74.6 C 117.8 73.4 118.8 73 119.7 73 C 119.73 72.97 120.8 73 120.8 73 C 120.8 73 120.8 72.48 120.8 72.5 C 120.8 72 120.4 71.7 119.8 71.7 C 119.14 71.7 118.3 71.8 118.3 71.8 L 118.2 71.7 L 118.2 70.9 C 118.2 70.9 119.1 70.78 120 70.8 C 120.9 70.8 121.9 71 121.9 72.2 C 121.86 72.24 121.9 76.1 121.9 76.1 Z M 120.8 73.8 C 120.8 73.8 120.02 73.81 120 73.8 C 119.3 73.8 118.9 74 118.9 74.6 C 118.9 75.1 119.3 75.3 119.7 75.3 C 120.1 75.3 120.4 75.2 120.8 74.7 C 120.8 74.71 120.8 73.8 120.8 73.8 Z M 124.2 68.8 L 124.2 76.1 L 123.1 76.1 L 123.1 68.8 L 124.2 68.8 Z M 126.5 70.1 L 125.4 70.1 L 125.4 68.9 L 126.5 68.9 L 126.5 70.1 Z M 126.5 70.9 L 126.5 76.1 L 125.4 76.1 L 125.4 70.9 L 126.5 70.9 Z M 131.7 76.1 L 130.7 76.1 C 130.7 76.1 130.69 72.4 130.7 72.4 C 130.7 71.8 130.4 71.7 129.9 71.7 C 129.6 71.7 129.2 71.9 128.8 72.4 C 128.77 72.37 128.8 76.1 128.8 76.1 L 127.7 76.1 L 127.7 70.9 L 128.7 70.9 L 128.8 71 L 128.7 71.6 L 128.8 71.6 C 128.8 71.6 129.24 70.78 130.3 70.8 C 131.1 70.8 131.7 71.1 131.7 72.3 C 131.74 72.33 131.7 76.1 131.7 76.1 Z M 133.9 72.3 C 133.95 72.35 133.9 73 133.9 73 C 133.9 73 135.76 72.97 135.8 73 C 135.8 72.8 135.8 72.6 135.8 72.4 C 135.8 71.9 135.4 71.7 134.9 71.7 C 134.3 71.7 133.9 71.9 133.9 72.3 Z M 136.7 73.8 L 133.9 73.8 C 133.9 73.8 133.95 74.35 133.9 74.3 C 133.9 75.1 134.5 75.2 135.1 75.2 C 135.77 75.23 136.5 75.1 136.5 75.1 L 136.5 75.2 L 136.5 76.1 C 136.5 76.1 135.74 76.18 134.8 76.2 C 133.9 76.2 132.9 75.9 132.9 74.7 C 132.9 74.7 132.9 72.4 132.9 72.4 C 132.9 71.1 133.9 70.8 134.9 70.8 C 135.9 70.8 136.9 71.1 136.9 72.4 C 136.9 73 136.8 73.6 136.8 73.7 C 136.82 73.7 136.7 73.8 136.7 73.8 Z " stroke="none" fill="#005829"/>  </g>  <g id="Polygon163318">    <path d="M 27.3 60.8 C 27.3 60.2 26.9 60.1 26.5 60.1 C 26.1 60.1 25.8 60.3 25.3 60.8 C 25.34 60.77 25.3 64.5 25.3 64.5 L 24.3 64.5 C 24.3 64.5 24.28 60.8 24.3 60.8 C 24.3 60.2 24 60.1 23.5 60.1 C 23.2 60.1 22.8 60.3 22.4 60.8 C 22.37 60.77 22.4 64.5 22.4 64.5 L 21.3 64.5 L 21.3 59.3 L 22.3 59.3 L 22.4 59.4 L 22.3 60 L 22.4 60 C 22.4 60 22.84 59.18 23.9 59.2 C 24.5 59.2 25 59.4 25.2 60 C 25.4 59.8 25.9 59.2 26.8 59.2 C 27.7 59.2 28.3 59.5 28.3 60.7 C 28.31 60.73 28.3 64.5 28.3 64.5 L 27.3 64.5 C 27.3 64.5 27.26 60.8 27.3 60.8 Z M 30.5 60.7 C 30.51 60.75 30.5 61.4 30.5 61.4 C 30.5 61.4 32.33 61.37 32.3 61.4 C 32.4 61.2 32.4 61 32.4 60.8 C 32.4 60.3 32 60.1 31.5 60.1 C 30.9 60.1 30.5 60.3 30.5 60.7 Z M 33.3 62.2 L 30.5 62.2 C 30.5 62.2 30.51 62.75 30.5 62.7 C 30.5 63.5 31 63.6 31.6 63.6 C 32.34 63.63 33 63.5 33 63.5 L 33.1 63.6 L 33.1 64.5 C 33.1 64.5 32.31 64.58 31.4 64.6 C 30.5 64.6 29.4 64.3 29.4 63.1 C 29.4 63.1 29.4 60.8 29.4 60.8 C 29.4 59.5 30.5 59.2 31.5 59.2 C 32.5 59.2 33.5 59.5 33.5 60.8 C 33.5 61.4 33.4 62 33.4 62.1 C 33.39 62.1 33.3 62.2 33.3 62.2 Z M 34.6 63.1 C 34.6 64.1 35.1 64.6 36.1 64.6 C 36.66 64.58 37 64.5 37 64.5 L 37 63.7 L 37 63.6 C 37 63.6 36.65 63.66 36.3 63.7 C 35.9 63.7 35.7 63.5 35.7 63.1 C 35.69 63.08 35.7 60.1 35.7 60.1 L 36.9 60.1 L 36.9 59.3 L 35.7 59.3 L 35.7 58.2 L 34.6 58.2 L 34.6 59.3 L 34.1 59.3 L 34.1 60.1 L 34.6 60.1 C 34.6 60.1 34.62 63.08 34.6 63.1 Z M 39 60 C 39 60 39.47 59.18 40.5 59.2 C 41.3 59.2 42 59.5 42 60.7 C 41.96 60.73 42 64.5 42 64.5 L 40.9 64.5 C 40.9 64.5 40.91 60.8 40.9 60.8 C 40.9 60.2 40.6 60.1 40.2 60.1 C 39.8 60.1 39.4 60.3 39 60.8 C 38.99 60.77 39 64.5 39 64.5 L 37.9 64.5 L 37.9 57.2 L 39 57.2 L 39 59.4 L 39 60 L 39 60 Z M 44.3 58.5 L 43.2 58.5 L 43.2 57.3 L 44.3 57.3 L 44.3 58.5 Z M 44.3 59.3 L 44.3 64.5 L 43.2 64.5 L 43.2 59.3 L 44.3 59.3 Z M 48.4 62.8 C 48.4 63.4 48.1 63.7 47.4 63.7 C 46.8 63.7 46.5 63.4 46.5 62.8 C 46.5 62.8 46.5 61 46.5 61 C 46.5 60.4 46.8 60.1 47.4 60.1 C 48 60.1 48.4 60.4 48.4 61 C 48.4 61 48.4 62.8 48.4 62.8 Z M 49.4 60.8 C 49.4 59.5 48.4 59.2 47.4 59.2 C 46.4 59.2 45.4 59.5 45.4 60.8 C 45.4 60.8 45.4 62.9 45.4 62.9 C 45.4 64.2 46.4 64.6 47.4 64.6 C 48.4 64.6 49.4 64.3 49.4 62.9 C 49.4 62.9 49.4 60.8 49.4 60.8 Z M 54.6 64.5 L 53.6 64.5 C 53.6 64.5 53.56 60.8 53.6 60.8 C 53.6 60.2 53.2 60.1 52.8 60.1 C 52.4 60.1 52.1 60.3 51.6 60.8 C 51.64 60.77 51.6 64.5 51.6 64.5 L 50.6 64.5 L 50.6 59.3 L 51.6 59.3 L 51.6 59.4 L 51.6 60 L 51.7 60 C 51.7 60 52.12 59.18 53.1 59.2 C 54 59.2 54.6 59.5 54.6 60.7 C 54.62 60.73 54.6 64.5 54.6 64.5 Z M 56.9 58.5 L 55.9 58.5 L 55.9 57.3 L 56.9 57.3 L 56.9 58.5 Z M 56.9 59.3 L 56.9 64.5 L 55.9 64.5 L 55.9 59.3 L 56.9 59.3 Z M 62.2 64.5 L 61.1 64.5 C 61.1 64.5 61.15 60.8 61.1 60.8 C 61.1 60.2 60.8 60.1 60.4 60.1 C 60 60.1 59.7 60.3 59.2 60.8 C 59.23 60.77 59.2 64.5 59.2 64.5 L 58.2 64.5 L 58.2 59.3 L 59.2 59.3 L 59.2 59.4 L 59.2 60 L 59.3 60 C 59.3 60 59.7 59.18 60.7 59.2 C 61.6 59.2 62.2 59.5 62.2 60.7 C 62.2 60.73 62.2 64.5 62.2 64.5 Z M 64.4 60.7 C 64.41 60.75 64.4 61.4 64.4 61.4 C 64.4 61.4 66.22 61.37 66.2 61.4 C 66.2 61.2 66.3 61 66.3 60.8 C 66.2 60.3 65.9 60.1 65.4 60.1 C 64.8 60.1 64.4 60.3 64.4 60.7 Z M 67.2 62.2 L 64.4 62.2 C 64.4 62.2 64.41 62.75 64.4 62.7 C 64.4 63.5 64.9 63.6 65.5 63.6 C 66.23 63.63 66.9 63.5 66.9 63.5 L 67 63.6 L 67 64.5 C 67 64.5 66.2 64.58 65.3 64.6 C 64.4 64.6 63.3 64.3 63.3 63.1 C 63.3 63.1 63.3 60.8 63.3 60.8 C 63.3 59.5 64.4 59.2 65.4 59.2 C 66.3 59.2 67.4 59.5 67.4 60.8 C 67.4 61.4 67.3 62 67.3 62.1 C 67.28 62.1 67.2 62.2 67.2 62.2 Z M 69.5 64.5 L 69.4 65.9 L 68.9 65.9 L 68.9 64.5 L 68.4 64.5 L 68.4 63.4 L 69.5 63.4 L 69.5 64.5 Z M 74.3 60.8 C 74.8 60.2 75.2 60.1 75.5 60.1 C 75.9 60.1 76.2 60.2 76.2 60.8 C 76.2 60.8 76.2 62.7 76.2 62.7 C 76.2 63.4 75.8 63.6 75.4 63.6 C 75.1 63.6 74.6 63.6 74.3 63.6 C 74.3 63.6 74.3 60.8 74.3 60.8 Z M 73.3 66.3 L 74.3 66.3 C 74.3 66.3 74.35 64.53 74.3 64.5 C 74.6 64.6 74.9 64.6 75.3 64.6 C 76.2 64.6 77.3 64.2 77.3 63 C 77.3 63 77.3 60.7 77.3 60.7 C 77.3 59.5 76.7 59.2 75.8 59.2 C 74.82 59.18 74.4 60 74.4 60 L 74.3 60 L 74.3 59.4 L 74.3 59.3 L 73.3 59.3 L 73.3 66.3 Z M 79.5 60 C 79.5 60 79.91 59.18 80.9 59.2 C 81.8 59.2 82.4 59.5 82.4 60.7 C 82.41 60.73 82.4 64.5 82.4 64.5 L 81.4 64.5 C 81.4 64.5 81.35 60.8 81.4 60.8 C 81.4 60.2 81 60.1 80.6 60.1 C 80.2 60.1 79.9 60.3 79.4 60.8 C 79.44 60.77 79.4 64.5 79.4 64.5 L 78.4 64.5 L 78.4 57.2 L 79.4 57.2 L 79.4 59.4 L 79.4 60 L 79.5 60 Z M 84.6 60.7 C 84.61 60.75 84.6 61.4 84.6 61.4 C 84.6 61.4 86.43 61.37 86.4 61.4 C 86.5 61.2 86.5 61 86.5 60.8 C 86.5 60.3 86.1 60.1 85.6 60.1 C 85 60.1 84.6 60.3 84.6 60.7 Z M 87.4 62.2 L 84.6 62.2 C 84.6 62.2 84.61 62.75 84.6 62.7 C 84.6 63.5 85.1 63.6 85.7 63.6 C 86.44 63.63 87.1 63.5 87.1 63.5 L 87.2 63.6 L 87.2 64.5 C 87.2 64.5 86.41 64.58 85.5 64.6 C 84.6 64.6 83.5 64.3 83.5 63.1 C 83.5 63.1 83.5 60.8 83.5 60.8 C 83.5 59.5 84.6 59.2 85.6 59.2 C 86.5 59.2 87.6 59.5 87.6 60.8 C 87.6 61.4 87.5 62 87.5 62.1 C 87.48 62.1 87.4 62.2 87.4 62.2 Z M 92.6 64.5 L 91.6 64.5 C 91.6 64.5 91.59 60.8 91.6 60.8 C 91.6 60.2 91.3 60.1 90.9 60.1 C 90.5 60.1 90.1 60.3 89.7 60.8 C 89.68 60.77 89.7 64.5 89.7 64.5 L 88.6 64.5 L 88.6 59.3 L 89.6 59.3 L 89.7 59.4 L 89.7 60 L 89.7 60 C 89.7 60 90.15 59.18 91.2 59.2 C 92 59.2 92.6 59.5 92.6 60.7 C 92.65 60.73 92.6 64.5 92.6 64.5 Z M 94.7 63 C 94.7 63.5 95.1 63.7 95.5 63.7 C 95.9 63.7 96.2 63.5 96.7 63 C 96.66 63 96.7 59.3 96.7 59.3 L 97.7 59.3 C 97.7 59.3 97.71 64.9 97.7 64.9 C 97.7 66.1 96.7 66.4 95.8 66.4 C 94.85 66.45 94 66.3 94 66.3 L 94 65.5 L 94.1 65.4 C 94.1 65.4 94.82 65.49 95.5 65.5 C 96.1 65.5 96.7 65.4 96.7 64.6 C 96.66 64.59 96.7 64.4 96.7 64.4 L 96.7 63.8 L 96.6 63.8 C 96.6 63.8 96.17 64.58 95.1 64.6 C 94.3 64.6 93.7 64.3 93.7 63 C 93.67 63.04 93.7 59.3 93.7 59.3 L 94.7 59.3 C 94.7 59.3 94.74 62.97 94.7 63 Z M 100 57.2 L 100 64.5 L 99 64.5 L 99 57.2 L 100 57.2 Z M 105.1 64.5 L 104.1 64.5 L 104 64.4 L 104 63.8 L 104 63.8 C 104 63.8 103.54 64.58 102.5 64.6 C 101.8 64.6 101 64.3 101 63 C 101 61.8 102 61.4 103 61.4 C 102.96 61.37 104 61.4 104 61.4 C 104 61.4 104.02 60.88 104 60.9 C 104 60.4 103.7 60.1 103.1 60.1 C 102.36 60.1 101.5 60.2 101.5 60.2 L 101.4 60.1 L 101.4 59.3 C 101.4 59.3 102.33 59.18 103.2 59.2 C 104.1 59.2 105.1 59.4 105.1 60.6 C 105.08 60.64 105.1 64.5 105.1 64.5 Z M 104 62.2 C 104 62.2 103.24 62.21 103.2 62.2 C 102.5 62.2 102.1 62.4 102.1 63 C 102.1 63.5 102.5 63.7 102.9 63.7 C 103.3 63.7 103.7 63.6 104 63.1 C 104.02 63.11 104 62.2 104 62.2 Z M 107.4 57.2 L 107.4 64.5 L 106.3 64.5 L 106.3 57.2 L 107.4 57.2 Z M 112.4 64.5 L 111.5 64.5 L 111.4 64.4 L 111.4 63.8 L 111.4 63.8 C 111.4 63.8 110.91 64.58 109.9 64.6 C 109.1 64.6 108.4 64.3 108.4 63 C 108.4 61.8 109.3 61.4 110.3 61.4 C 110.32 61.37 111.4 61.4 111.4 61.4 C 111.4 61.4 111.39 60.88 111.4 60.9 C 111.4 60.4 111 60.1 110.4 60.1 C 109.73 60.1 108.9 60.2 108.9 60.2 L 108.8 60.1 L 108.8 59.3 C 108.8 59.3 109.69 59.18 110.6 59.2 C 111.4 59.2 112.4 59.4 112.4 60.6 C 112.45 60.64 112.4 64.5 112.4 64.5 Z M 111.4 62.2 C 111.4 62.2 110.61 62.21 110.6 62.2 C 109.9 62.2 109.5 62.4 109.5 63 C 109.5 63.5 109.9 63.7 110.3 63.7 C 110.6 63.7 111 63.6 111.4 63.1 C 111.39 63.11 111.4 62.2 111.4 62.2 Z M 117.7 64.5 L 116.7 64.5 C 116.7 64.5 116.68 60.8 116.7 60.8 C 116.7 60.2 116.4 60.1 115.9 60.1 C 115.6 60.1 115.2 60.3 114.8 60.8 C 114.76 60.77 114.8 64.5 114.8 64.5 L 113.7 64.5 L 113.7 59.3 L 114.7 59.3 L 114.8 59.4 L 114.7 60 L 114.8 60 C 114.8 60 115.23 59.18 116.3 59.2 C 117.1 59.2 117.7 59.5 117.7 60.7 C 117.73 60.73 117.7 64.5 117.7 64.5 Z M 120 58.5 L 119 58.5 L 119 57.3 L 120 57.3 L 120 58.5 Z M 120 59.3 L 120 64.5 L 119 64.5 L 119 59.3 L 120 59.3 Z M 125.3 64.5 L 124.3 64.5 C 124.3 64.5 124.26 60.8 124.3 60.8 C 124.3 60.2 123.9 60.1 123.5 60.1 C 123.1 60.1 122.8 60.3 122.3 60.8 C 122.35 60.77 122.3 64.5 122.3 64.5 L 121.3 64.5 L 121.3 59.3 L 122.3 59.3 L 122.3 59.4 L 122.3 60 L 122.4 60 C 122.4 60 122.82 59.18 123.8 59.2 C 124.7 59.2 125.3 59.5 125.3 60.7 C 125.32 60.73 125.3 64.5 125.3 64.5 Z M 127.5 60.7 C 127.52 60.75 127.5 61.4 127.5 61.4 C 127.5 61.4 129.34 61.37 129.3 61.4 C 129.4 61.2 129.4 61 129.4 60.8 C 129.4 60.3 129 60.1 128.5 60.1 C 127.9 60.1 127.5 60.3 127.5 60.7 Z M 130.3 62.2 L 127.5 62.2 C 127.5 62.2 127.52 62.75 127.5 62.7 C 127.5 63.5 128 63.6 128.7 63.6 C 129.35 63.63 130 63.5 130 63.5 L 130.1 63.6 L 130.1 64.5 C 130.1 64.5 129.32 64.58 128.4 64.6 C 127.5 64.6 126.5 64.3 126.5 63.1 C 126.5 63.1 126.5 60.8 126.5 60.8 C 126.5 59.5 127.5 59.2 128.5 59.2 C 129.5 59.2 130.5 59.5 130.5 60.8 C 130.5 61.4 130.4 62 130.4 62.1 C 130.39 62.1 130.3 62.2 130.3 62.2 Z M 132.6 64.5 L 132.5 65.9 L 132 65.9 L 132 64.5 L 131.5 64.5 L 131.5 63.4 L 132.6 63.4 L 132.6 64.5 Z M 136.5 63.1 C 136.5 64.1 137 64.6 137.9 64.6 C 138.51 64.58 138.9 64.5 138.9 64.5 L 138.9 63.7 L 138.8 63.6 C 138.8 63.6 138.5 63.66 138.1 63.7 C 137.8 63.7 137.5 63.5 137.5 63.1 C 137.54 63.08 137.5 60.1 137.5 60.1 L 138.8 60.1 L 138.8 59.3 L 137.5 59.3 L 137.5 58.2 L 136.5 58.2 L 136.5 59.3 L 135.9 59.3 L 135.9 60.1 L 136.5 60.1 C 136.5 60.1 136.47 63.08 136.5 63.1 Z M 140.9 60 C 140.9 60 141.32 59.18 142.3 59.2 C 143.2 59.2 143.8 59.5 143.8 60.7 C 143.82 60.73 143.8 64.5 143.8 64.5 L 142.8 64.5 C 142.8 64.5 142.76 60.8 142.8 60.8 C 142.8 60.2 142.4 60.1 142 60.1 C 141.6 60.1 141.3 60.3 140.8 60.8 C 140.84 60.77 140.8 64.5 140.8 64.5 L 139.8 64.5 L 139.8 57.2 L 140.8 57.2 L 140.8 59.4 L 140.8 60 L 140.9 60 Z M 147.7 60.2 C 147.3 60.2 146.7 60.2 146.1 60.8 C 146.13 60.8 146.1 64.5 146.1 64.5 L 145.1 64.5 L 145.1 59.3 L 146.1 59.3 L 146.1 59.4 L 146.1 60 C 146.1 60 146.15 59.95 146.2 60 C 146.1 60 146.7 59.1 147.8 59.2 C 147.81 59.18 147.8 60.2 147.8 60.2 C 147.8 60.2 147.74 60.25 147.7 60.2 Z M 149.4 60.7 C 149.43 60.75 149.4 61.4 149.4 61.4 C 149.4 61.4 151.25 61.37 151.3 61.4 C 151.3 61.2 151.3 61 151.3 60.8 C 151.3 60.3 150.9 60.1 150.4 60.1 C 149.8 60.1 149.4 60.3 149.4 60.7 Z M 152.2 62.2 L 149.4 62.2 C 149.4 62.2 149.43 62.75 149.4 62.7 C 149.4 63.5 150 63.6 150.6 63.6 C 151.26 63.63 152 63.5 152 63.5 L 152 63.6 L 152 64.5 C 152 64.5 151.23 64.58 150.3 64.6 C 149.4 64.6 148.4 64.3 148.4 63.1 C 148.4 63.1 148.4 60.8 148.4 60.8 C 148.4 59.5 149.4 59.2 150.4 59.2 C 151.4 59.2 152.4 59.5 152.4 60.8 C 152.4 61.4 152.3 62 152.3 62.1 C 152.31 62.1 152.2 62.2 152.2 62.2 Z M 156.3 62.8 C 156.3 63.4 156 63.7 155.3 63.7 C 154.7 63.7 154.4 63.4 154.4 62.8 C 154.4 62.8 154.4 61 154.4 61 C 154.4 60.4 154.7 60.1 155.3 60.1 C 155.9 60.1 156.3 60.4 156.3 61 C 156.3 61 156.3 62.8 156.3 62.8 Z M 157.4 60.8 C 157.4 59.5 156.3 59.2 155.3 59.2 C 154.4 59.2 153.3 59.5 153.3 60.8 C 153.3 60.8 153.3 62.9 153.3 62.9 C 153.3 64.2 154.4 64.6 155.3 64.6 C 156.3 64.6 157.4 64.3 157.4 62.9 C 157.4 62.9 157.4 60.8 157.4 60.8 Z M 162.5 64.5 L 161.5 64.5 C 161.5 64.5 161.48 60.8 161.5 60.8 C 161.5 60.2 161.2 60.1 160.7 60.1 C 160.4 60.1 160 60.3 159.6 60.8 C 159.56 60.77 159.6 64.5 159.6 64.5 L 158.5 64.5 L 158.5 59.3 L 159.5 59.3 L 159.6 59.4 L 159.5 60 L 159.6 60 C 159.6 60 160.04 59.18 161.1 59.2 C 161.9 59.2 162.5 59.5 162.5 60.7 C 162.54 60.73 162.5 64.5 162.5 64.5 Z M 164.8 58.5 L 163.8 58.5 L 163.8 57.3 L 164.8 57.3 L 164.8 58.5 Z M 164.8 59.3 L 164.8 64.5 L 163.8 64.5 L 163.8 59.3 L 164.8 59.3 Z M 170.1 64.5 L 169.1 64.5 C 169.1 64.5 169.07 60.8 169.1 60.8 C 169.1 60.2 168.7 60.1 168.3 60.1 C 168 60.1 167.6 60.3 167.1 60.8 C 167.15 60.77 167.1 64.5 167.1 64.5 L 166.1 64.5 L 166.1 59.3 L 167.1 59.3 L 167.1 59.4 L 167.1 60 L 167.2 60 C 167.2 60 167.62 59.18 168.6 59.2 C 169.5 59.2 170.1 59.5 170.1 60.7 C 170.12 60.73 170.1 64.5 170.1 64.5 Z M 172.3 60.7 C 172.32 60.75 172.3 61.4 172.3 61.4 C 172.3 61.4 174.14 61.37 174.1 61.4 C 174.2 61.2 174.2 61 174.2 60.8 C 174.2 60.3 173.8 60.1 173.3 60.1 C 172.7 60.1 172.3 60.3 172.3 60.7 Z M 175.1 62.2 L 172.3 62.2 C 172.3 62.2 172.32 62.75 172.3 62.7 C 172.3 63.5 172.8 63.6 173.5 63.6 C 174.15 63.63 174.8 63.5 174.8 63.5 L 174.9 63.6 L 174.9 64.5 C 174.9 64.5 174.12 64.58 173.2 64.6 C 172.3 64.6 171.3 64.3 171.3 63.1 C 171.3 63.1 171.3 60.8 171.3 60.8 C 171.3 59.5 172.3 59.2 173.3 59.2 C 174.3 59.2 175.3 59.5 175.3 60.8 C 175.3 61.4 175.2 62 175.2 62.1 C 175.2 62.1 175.1 62.2 175.1 62.2 Z M 177.4 64.5 L 177.3 65.9 L 176.8 65.9 L 176.8 64.5 L 176.3 64.5 L 176.3 63.4 L 177.4 63.4 L 177.4 64.5 Z " stroke="none" fill="#005829"/>  </g>  <g id="Polygon163317">    <path d="M 26.6 48.8 L 28.9 48.8 L 28.9 45.9 L 30 45.9 L 30 52.9 L 28.9 52.9 L 28.9 49.8 L 26.6 49.8 L 26.6 52.9 L 25.5 52.9 L 25.5 45.9 L 26.6 45.9 L 26.6 48.8 Z M 32.3 46.9 L 31.2 46.9 L 31.2 45.7 L 32.3 45.7 L 32.3 46.9 Z M 32.3 47.7 L 32.3 52.9 L 31.2 52.9 L 31.2 47.7 L 32.3 47.7 Z M 33.4 52 L 33.4 52.9 C 33.4 52.9 34.38 52.98 35.3 53 C 36.2 53 37.2 52.8 37.2 51.4 C 37.2 50.4 36.8 49.8 35.6 49.8 C 34.8 49.8 34.4 49.8 34.4 49.2 C 34.4 48.6 34.8 48.5 35.5 48.5 C 36.17 48.54 36.9 48.6 36.9 48.6 L 37 48.6 L 37 47.7 C 37 47.7 36.05 47.58 35.1 47.6 C 34.2 47.6 33.3 47.9 33.3 49.1 C 33.3 50.3 33.9 50.7 35.1 50.7 C 35.8 50.7 36.2 50.8 36.2 51.4 C 36.2 52 35.6 52 34.8 52 C 34.13 52.03 33.4 51.9 33.4 51.9 L 33.4 52 Z M 38.4 51.5 C 38.4 52.5 38.9 53 39.8 53 C 40.41 52.98 40.8 52.9 40.8 52.9 L 40.8 52.1 L 40.7 52 C 40.7 52 40.4 52.06 40 52.1 C 39.7 52.1 39.4 51.9 39.4 51.5 C 39.44 51.48 39.4 48.5 39.4 48.5 L 40.7 48.5 L 40.7 47.7 L 39.4 47.7 L 39.4 46.6 L 38.4 46.6 L 38.4 47.7 L 37.8 47.7 L 37.8 48.5 L 38.4 48.5 C 38.4 48.5 38.38 51.48 38.4 51.5 Z M 42.7 46.9 L 41.7 46.9 L 41.7 45.7 L 42.7 45.7 L 42.7 46.9 Z M 42.7 47.7 L 42.7 52.9 L 41.7 52.9 L 41.7 47.7 L 42.7 47.7 Z M 46.8 51.4 C 46.4 51.9 46 52.1 45.6 52.1 C 45.2 52.1 44.9 51.9 44.9 51.4 C 44.9 51.4 44.9 49.4 44.9 49.4 C 44.9 48.7 45.4 48.5 45.9 48.5 C 46.3 48.5 46.5 48.5 46.8 48.6 C 46.8 48.6 46.8 51.4 46.8 51.4 Z M 47.9 45.6 L 46.8 45.6 C 46.8 45.6 46.8 47.63 46.8 47.6 C 46.5 47.6 46.2 47.6 45.8 47.6 C 44.9 47.6 43.9 48 43.9 49.2 C 43.9 49.2 43.9 51.4 43.9 51.4 C 43.9 52.7 44.5 53 45.3 53 C 46.32 52.98 46.8 52.2 46.8 52.2 L 46.8 52.2 L 46.8 52.8 L 46.9 52.9 L 47.9 52.9 L 47.9 45.6 Z M 50.2 46.9 L 49.1 46.9 L 49.1 45.7 L 50.2 45.7 L 50.2 46.9 Z M 50.2 47.7 L 50.2 52.9 L 49.1 52.9 L 49.1 47.7 L 50.2 47.7 Z M 55.4 52.9 L 54.4 52.9 C 54.4 52.9 54.39 49.2 54.4 49.2 C 54.4 48.6 54.1 48.5 53.6 48.5 C 53.3 48.5 52.9 48.7 52.5 49.2 C 52.47 49.17 52.5 52.9 52.5 52.9 L 51.4 52.9 L 51.4 47.7 L 52.4 47.7 L 52.5 47.8 L 52.4 48.4 L 52.5 48.4 C 52.5 48.4 52.94 47.58 54 47.6 C 54.8 47.6 55.4 47.9 55.4 49.1 C 55.44 49.13 55.4 52.9 55.4 52.9 Z M 57.6 49.1 C 57.64 49.15 57.6 49.8 57.6 49.8 C 57.6 49.8 59.46 49.77 59.5 49.8 C 59.5 49.6 59.5 49.4 59.5 49.2 C 59.5 48.7 59.1 48.5 58.6 48.5 C 58 48.5 57.6 48.7 57.6 49.1 Z M 60.4 50.6 L 57.6 50.6 C 57.6 50.6 57.64 51.15 57.6 51.1 C 57.6 51.9 58.2 52 58.8 52 C 59.47 52.03 60.2 51.9 60.2 51.9 L 60.2 52 L 60.2 52.9 C 60.2 52.9 59.44 52.98 58.5 53 C 57.6 53 56.6 52.7 56.6 51.5 C 56.6 51.5 56.6 49.2 56.6 49.2 C 56.6 47.9 57.6 47.6 58.6 47.6 C 59.6 47.6 60.6 47.9 60.6 49.2 C 60.6 49.8 60.5 50.4 60.5 50.5 C 60.52 50.5 60.4 50.6 60.4 50.6 Z M 62.7 52.9 L 62.6 54.3 L 62.1 54.3 L 62.1 52.9 L 61.6 52.9 L 61.6 51.8 L 62.7 51.8 L 62.7 52.9 Z M 67.6 46.9 L 66.5 46.9 L 66.5 45.7 L 67.6 45.7 L 67.6 46.9 Z M 67.6 47.7 L 67.6 52.9 L 66.5 52.9 L 66.5 47.7 L 67.6 47.7 Z M 68.6 52 L 68.6 52.9 C 68.6 52.9 69.64 52.98 70.6 53 C 71.5 53 72.5 52.8 72.5 51.4 C 72.5 50.4 72.1 49.8 70.8 49.8 C 70.1 49.8 69.6 49.8 69.6 49.2 C 69.6 48.6 70.1 48.5 70.7 48.5 C 71.43 48.54 72.2 48.6 72.2 48.6 L 72.2 48.6 L 72.2 47.7 C 72.2 47.7 71.31 47.58 70.4 47.6 C 69.4 47.6 68.6 47.9 68.6 49.1 C 68.6 50.3 69.1 50.7 70.4 50.7 C 71 50.7 71.5 50.8 71.5 51.4 C 71.5 52 70.8 52 70.1 52 C 69.38 52.03 68.7 51.9 68.7 51.9 L 68.6 52 Z M 76.4 51.2 C 76.4 51.8 76.1 52.1 75.4 52.1 C 74.8 52.1 74.5 51.8 74.5 51.2 C 74.5 51.2 74.5 49.4 74.5 49.4 C 74.5 48.8 74.8 48.5 75.4 48.5 C 76 48.5 76.4 48.8 76.4 49.4 C 76.4 49.4 76.4 51.2 76.4 51.2 Z M 77.5 49.2 C 77.5 47.9 76.4 47.6 75.4 47.6 C 74.5 47.6 73.4 47.9 73.4 49.2 C 73.4 49.2 73.4 51.3 73.4 51.3 C 73.4 52.6 74.5 53 75.4 53 C 76.4 53 77.5 52.7 77.5 51.3 C 77.5 51.3 77.5 49.2 77.5 49.2 Z M 79.7 45.6 L 79.7 52.9 L 78.6 52.9 L 78.6 45.6 L 79.7 45.6 Z M 81.8 49.1 C 81.85 49.15 81.8 49.8 81.8 49.8 C 81.8 49.8 83.66 49.77 83.7 49.8 C 83.7 49.6 83.7 49.4 83.7 49.2 C 83.7 48.7 83.3 48.5 82.8 48.5 C 82.2 48.5 81.8 48.7 81.8 49.1 Z M 84.6 50.6 L 81.8 50.6 C 81.8 50.6 81.85 51.15 81.8 51.1 C 81.8 51.9 82.4 52 83 52 C 83.68 52.03 84.4 51.9 84.4 51.9 L 84.4 52 L 84.4 52.9 C 84.4 52.9 83.64 52.98 82.7 53 C 81.8 53 80.8 52.7 80.8 51.5 C 80.8 51.5 80.8 49.2 80.8 49.2 C 80.8 47.9 81.8 47.6 82.8 47.6 C 83.8 47.6 84.8 47.9 84.8 49.2 C 84.8 49.8 84.7 50.4 84.7 50.5 C 84.72 50.5 84.6 50.6 84.6 50.6 Z M 85.8 47.7 L 86.9 47.7 C 86.9 47.7 86.9 51.36 86.9 51.4 C 86.9 51.9 87.2 52.1 87.6 52.1 C 88 52.1 88.4 51.9 88.8 51.4 C 88.82 51.39 88.8 47.7 88.8 47.7 L 89.9 47.7 L 89.9 52.9 L 88.9 52.9 L 88.8 52.8 L 88.8 52.2 L 88.8 52.2 C 88.8 52.2 88.34 52.98 87.3 53 C 86.5 53 85.8 52.7 85.8 51.4 C 85.85 51.43 85.8 47.7 85.8 47.7 Z M 94.6 48.6 L 94.6 47.7 C 94.6 47.7 93.88 47.58 93 47.6 C 92.1 47.6 91 47.9 91 49.1 C 91 49.1 91 51.5 91 51.5 C 91 52.7 92.1 53 93 53 C 93.88 52.98 94.6 52.9 94.6 52.9 L 94.6 52 L 94.5 51.9 C 94.5 51.9 93.91 52.03 93.2 52 C 92.6 52 92.1 51.9 92.1 51.1 C 92.1 51.1 92.1 49.4 92.1 49.4 C 92.1 48.6 92.6 48.5 93.2 48.5 C 93.91 48.54 94.5 48.6 94.5 48.6 L 94.6 48.6 Z M 96.6 46.9 L 95.5 46.9 L 95.5 45.7 L 96.6 45.7 L 96.6 46.9 Z M 96.6 47.7 L 96.6 52.9 L 95.5 52.9 L 95.5 47.7 L 96.6 47.7 Z M 101.9 52.9 L 100.8 52.9 C 100.8 52.9 100.82 49.2 100.8 49.2 C 100.8 48.6 100.5 48.5 100.1 48.5 C 99.7 48.5 99.3 48.7 98.9 49.2 C 98.9 49.17 98.9 52.9 98.9 52.9 L 97.8 52.9 L 97.8 47.7 L 98.8 47.7 L 98.9 47.8 L 98.9 48.4 L 98.9 48.4 C 98.9 48.4 99.38 47.58 100.4 47.6 C 101.2 47.6 101.9 47.9 101.9 49.1 C 101.88 49.13 101.9 52.9 101.9 52.9 Z M 104.1 49.1 C 104.08 49.15 104.1 49.8 104.1 49.8 C 104.1 49.8 105.9 49.77 105.9 49.8 C 105.9 49.6 106 49.4 105.9 49.2 C 105.9 48.7 105.6 48.5 105 48.5 C 104.5 48.5 104.1 48.7 104.1 49.1 Z M 106.8 50.6 L 104.1 50.6 C 104.1 50.6 104.08 51.15 104.1 51.1 C 104.1 51.9 104.6 52 105.2 52 C 105.91 52.03 106.6 51.9 106.6 51.9 L 106.7 52 L 106.7 52.9 C 106.7 52.9 105.87 52.98 105 53 C 104 53 103 52.7 103 51.5 C 103 51.5 103 49.2 103 49.2 C 103 47.9 104.1 47.6 105 47.6 C 106 47.6 107.1 47.9 107.1 49.2 C 107.1 49.8 107 50.4 107 50.5 C 106.95 50.5 106.8 50.6 106.8 50.6 Z M 109.1 52.9 L 109 54.3 L 108.6 54.3 L 108.6 52.9 L 108.1 52.9 L 108.1 51.8 L 109.1 51.8 L 109.1 52.9 Z M 114 45.6 L 114 52.9 L 112.9 52.9 L 112.9 45.6 L 114 45.6 Z M 116.2 49.1 C 116.18 49.15 116.2 49.8 116.2 49.8 C 116.2 49.8 118 49.77 118 49.8 C 118 49.6 118.1 49.4 118 49.2 C 118 48.7 117.7 48.5 117.1 48.5 C 116.6 48.5 116.2 48.7 116.2 49.1 Z M 118.9 50.6 L 116.2 50.6 C 116.2 50.6 116.18 51.15 116.2 51.1 C 116.2 51.9 116.7 52 117.3 52 C 118.01 52.03 118.7 51.9 118.7 51.9 L 118.8 52 L 118.8 52.9 C 118.8 52.9 117.98 52.98 117.1 53 C 116.1 53 115.1 52.7 115.1 51.5 C 115.1 51.5 115.1 49.2 115.1 49.2 C 115.1 47.9 116.2 47.6 117.1 47.6 C 118.1 47.6 119.2 47.9 119.2 49.2 C 119.2 49.8 119.1 50.4 119.1 50.5 C 119.05 50.5 118.9 50.6 118.9 50.6 Z M 120.2 47.7 L 121.2 47.7 C 121.2 47.7 121.23 51.36 121.2 51.4 C 121.2 51.9 121.6 52.1 122 52.1 C 122.3 52.1 122.7 51.9 123.2 51.4 C 123.15 51.39 123.2 47.7 123.2 47.7 L 124.2 47.7 L 124.2 52.9 L 123.2 52.9 L 123.2 52.8 L 123.2 52.2 L 123.1 52.2 C 123.1 52.2 122.68 52.98 121.7 53 C 120.8 53 120.2 52.7 120.2 51.4 C 120.18 51.43 120.2 47.7 120.2 47.7 Z M 129 48.6 L 129 47.7 C 129 47.7 128.21 47.58 127.3 47.6 C 126.4 47.6 125.4 47.9 125.4 49.1 C 125.4 49.1 125.4 51.5 125.4 51.5 C 125.4 52.7 126.4 53 127.3 53 C 128.21 52.98 129 52.9 129 52.9 L 129 52 L 128.9 51.9 C 128.9 51.9 128.25 52.03 127.6 52 C 126.9 52 126.4 51.9 126.4 51.1 C 126.4 51.1 126.4 49.4 126.4 49.4 C 126.4 48.6 126.9 48.5 127.6 48.5 C 128.25 48.54 128.9 48.6 128.9 48.6 L 129 48.6 Z M 130.9 46.9 L 129.9 46.9 L 129.9 45.7 L 130.9 45.7 L 130.9 46.9 Z M 130.9 47.7 L 130.9 52.9 L 129.9 52.9 L 129.9 47.7 L 130.9 47.7 Z M 136.2 52.9 L 135.2 52.9 C 135.2 52.9 135.15 49.2 135.2 49.2 C 135.2 48.6 134.8 48.5 134.4 48.5 C 134 48.5 133.7 48.7 133.2 49.2 C 133.24 49.17 133.2 52.9 133.2 52.9 L 132.2 52.9 L 132.2 47.7 L 133.2 47.7 L 133.2 47.8 L 133.2 48.4 L 133.3 48.4 C 133.3 48.4 133.71 47.58 134.7 47.6 C 135.6 47.6 136.2 47.9 136.2 49.1 C 136.21 49.13 136.2 52.9 136.2 52.9 Z M 138.4 49.1 C 138.41 49.15 138.4 49.8 138.4 49.8 C 138.4 49.8 140.23 49.77 140.2 49.8 C 140.3 49.6 140.3 49.4 140.3 49.2 C 140.3 48.7 139.9 48.5 139.4 48.5 C 138.8 48.5 138.4 48.7 138.4 49.1 Z M 141.2 50.6 L 138.4 50.6 C 138.4 50.6 138.41 51.15 138.4 51.1 C 138.4 51.9 138.9 52 139.5 52 C 140.24 52.03 140.9 51.9 140.9 51.9 L 141 52 L 141 52.9 C 141 52.9 140.21 52.98 139.3 53 C 138.4 53 137.3 52.7 137.3 51.5 C 137.3 51.5 137.3 49.2 137.3 49.2 C 137.3 47.9 138.4 47.6 139.4 47.6 C 140.3 47.6 141.4 47.9 141.4 49.2 C 141.4 49.8 141.3 50.4 141.3 50.5 C 141.28 50.5 141.2 50.6 141.2 50.6 Z M 143.5 52.9 L 143.4 54.3 L 142.9 54.3 L 142.9 52.9 L 142.4 52.9 L 142.4 51.8 L 143.5 51.8 L 143.5 52.9 Z M 148.3 45.6 L 148.3 52.9 L 147.3 52.9 L 147.3 45.6 L 148.3 45.6 Z M 150.6 51.4 C 150.6 51.9 150.9 52.1 151.4 52.1 C 151.7 52.1 152.1 51.9 152.5 51.4 C 152.54 51.4 152.5 47.7 152.5 47.7 L 153.6 47.7 C 153.6 47.7 153.59 53.3 153.6 53.3 C 153.6 54.5 152.6 54.8 151.6 54.8 C 150.73 54.85 149.9 54.7 149.9 54.7 L 149.9 53.9 L 150 53.8 C 150 53.8 150.7 53.89 151.4 53.9 C 152 53.9 152.5 53.8 152.5 53 C 152.54 52.99 152.5 52.8 152.5 52.8 L 152.6 52.2 L 152.5 52.2 C 152.5 52.2 152.05 52.98 151 53 C 150.2 53 149.6 52.7 149.6 51.4 C 149.55 51.44 149.6 47.7 149.6 47.7 L 150.6 47.7 C 150.6 47.7 150.62 51.37 150.6 51.4 Z M 154.7 52 L 154.7 52.9 C 154.7 52.9 155.69 52.98 156.6 53 C 157.5 53 158.5 52.8 158.5 51.4 C 158.5 50.4 158.1 49.8 156.9 49.8 C 156.1 49.8 155.7 49.8 155.7 49.2 C 155.7 48.6 156.1 48.5 156.8 48.5 C 157.48 48.54 158.2 48.6 158.2 48.6 L 158.3 48.6 L 158.3 47.7 C 158.3 47.7 157.36 47.58 156.4 47.6 C 155.5 47.6 154.6 47.9 154.6 49.1 C 154.6 50.3 155.2 50.7 156.5 50.7 C 157.1 50.7 157.5 50.8 157.5 51.4 C 157.5 52 156.9 52 156.1 52 C 155.43 52.03 154.7 51.9 154.7 51.9 L 154.7 52 Z M 160.6 46.9 L 159.6 46.9 L 159.6 45.7 L 160.6 45.7 L 160.6 46.9 Z M 160.6 47.7 L 160.6 52.9 L 159.6 52.9 L 159.6 47.7 L 160.6 47.7 Z M 165.9 52.9 L 164.9 52.9 C 164.9 52.9 164.86 49.2 164.9 49.2 C 164.9 48.6 164.5 48.5 164.1 48.5 C 163.7 48.5 163.4 48.7 162.9 49.2 C 162.94 49.17 162.9 52.9 162.9 52.9 L 161.9 52.9 L 161.9 47.7 L 162.9 47.7 L 162.9 47.8 L 162.9 48.4 L 163 48.4 C 163 48.4 163.42 47.58 164.4 47.6 C 165.3 47.6 165.9 47.9 165.9 49.1 C 165.92 49.13 165.9 52.9 165.9 52.9 Z M 168.1 49.1 C 168.12 49.15 168.1 49.8 168.1 49.8 C 168.1 49.8 169.94 49.77 169.9 49.8 C 170 49.6 170 49.4 170 49.2 C 170 48.7 169.6 48.5 169.1 48.5 C 168.5 48.5 168.1 48.7 168.1 49.1 Z M 170.9 50.6 L 168.1 50.6 C 168.1 50.6 168.12 51.15 168.1 51.1 C 168.1 51.9 168.6 52 169.3 52 C 169.95 52.03 170.6 51.9 170.6 51.9 L 170.7 52 L 170.7 52.9 C 170.7 52.9 169.91 52.98 169 53 C 168.1 53 167.1 52.7 167.1 51.5 C 167.1 51.5 167.1 49.2 167.1 49.2 C 167.1 47.9 168.1 47.6 169.1 47.6 C 170.1 47.6 171.1 47.9 171.1 49.2 C 171.1 49.8 171 50.4 171 50.5 C 170.99 50.5 170.9 50.6 170.9 50.6 Z M 173.2 52.9 L 173.1 54.3 L 172.6 54.3 L 172.6 52.9 L 172.1 52.9 L 172.1 51.8 L 173.2 51.8 L 173.2 52.9 Z " stroke="none" fill="#005829"/>  </g>  <g id="Polygon163316">    <path d="M 31.2 23.1 L 31.2 30.1 L 30.1 30.1 L 30.1 23.1 L 31.2 23.1 Z M 38.4 26.4 C 38.4 25.8 38 25.7 37.6 25.7 C 37.2 25.7 36.9 25.9 36.4 26.4 C 36.44 26.37 36.4 30.1 36.4 30.1 L 35.4 30.1 C 35.4 30.1 35.39 26.4 35.4 26.4 C 35.4 25.8 35.1 25.7 34.6 25.7 C 34.3 25.7 33.9 25.9 33.5 26.4 C 33.47 26.37 33.5 30.1 33.5 30.1 L 32.4 30.1 L 32.4 24.9 L 33.4 24.9 L 33.5 25 L 33.4 25.6 L 33.5 25.6 C 33.5 25.6 33.94 24.78 35 24.8 C 35.6 24.8 36.1 25 36.3 25.6 C 36.5 25.4 37 24.8 38 24.8 C 38.8 24.8 39.4 25.1 39.4 26.3 C 39.42 26.33 39.4 30.1 39.4 30.1 L 38.4 30.1 C 38.4 30.1 38.36 26.4 38.4 26.4 Z M 41.8 26.4 C 42.2 25.8 42.6 25.7 42.9 25.7 C 43.3 25.7 43.6 25.8 43.6 26.4 C 43.6 26.4 43.6 28.3 43.6 28.3 C 43.6 29 43.2 29.2 42.8 29.2 C 42.5 29.2 42 29.2 41.8 29.2 C 41.8 29.2 41.8 26.4 41.8 26.4 Z M 40.7 31.9 L 41.8 31.9 C 41.8 31.9 41.76 30.13 41.8 30.1 C 42 30.2 42.3 30.2 42.7 30.2 C 43.6 30.2 44.7 29.8 44.7 28.6 C 44.7 28.6 44.7 26.3 44.7 26.3 C 44.7 25.1 44.1 24.8 43.3 24.8 C 42.23 24.78 41.8 25.6 41.8 25.6 L 41.7 25.6 L 41.8 25 L 41.7 24.9 L 40.7 24.9 L 40.7 31.9 Z M 48.7 28.4 C 48.7 29 48.3 29.3 47.7 29.3 C 47.1 29.3 46.7 29 46.7 28.4 C 46.7 28.4 46.7 26.6 46.7 26.6 C 46.7 26 47 25.7 47.7 25.7 C 48.3 25.7 48.7 26 48.7 26.6 C 48.7 26.6 48.7 28.4 48.7 28.4 Z M 49.7 26.4 C 49.7 25.1 48.7 24.8 47.7 24.8 C 46.7 24.8 45.7 25.1 45.7 26.4 C 45.7 26.4 45.7 28.5 45.7 28.5 C 45.7 29.8 46.7 30.2 47.7 30.2 C 48.7 30.2 49.7 29.9 49.7 28.5 C 49.7 28.5 49.7 26.4 49.7 26.4 Z M 53.5 25.8 C 53.1 25.8 52.5 25.8 51.9 26.4 C 51.91 26.4 51.9 30.1 51.9 30.1 L 50.8 30.1 L 50.8 24.9 L 51.8 24.9 L 51.9 25 L 51.9 25.6 C 51.9 25.6 51.94 25.55 51.9 25.6 C 51.9 25.6 52.5 24.7 53.6 24.8 C 53.6 24.78 53.6 25.8 53.6 25.8 C 53.6 25.8 53.52 25.85 53.5 25.8 Z M 54.6 28.7 C 54.6 29.7 55.1 30.2 56 30.2 C 56.63 30.18 57 30.1 57 30.1 L 57 29.3 L 56.9 29.2 C 56.9 29.2 56.61 29.26 56.3 29.3 C 55.9 29.3 55.7 29.1 55.7 28.7 C 55.66 28.68 55.7 25.7 55.7 25.7 L 56.9 25.7 L 56.9 24.9 L 55.7 24.9 L 55.7 23.8 L 54.6 23.8 L 54.6 24.9 L 54 24.9 L 54 25.7 L 54.6 25.7 C 54.6 25.7 54.59 28.68 54.6 28.7 Z M 61.7 30.1 L 60.7 30.1 L 60.7 30 L 60.7 29.4 L 60.6 29.4 C 60.6 29.4 60.17 30.18 59.1 30.2 C 58.4 30.2 57.7 29.9 57.7 28.6 C 57.7 27.4 58.6 27 59.6 27 C 59.59 26.97 60.7 27 60.7 27 C 60.7 27 60.66 26.48 60.7 26.5 C 60.7 26 60.3 25.7 59.7 25.7 C 58.99 25.7 58.2 25.8 58.2 25.8 L 58.1 25.7 L 58.1 24.9 C 58.1 24.9 58.96 24.78 59.9 24.8 C 60.7 24.8 61.7 25 61.7 26.2 C 61.71 26.24 61.7 30.1 61.7 30.1 Z M 60.7 27.8 C 60.7 27.8 59.87 27.81 59.9 27.8 C 59.1 27.8 58.7 28 58.7 28.6 C 58.7 29.1 59.2 29.3 59.5 29.3 C 59.9 29.3 60.3 29.2 60.7 28.7 C 60.66 28.71 60.7 27.8 60.7 27.8 Z M 67 30.1 L 65.9 30.1 C 65.9 30.1 65.94 26.4 65.9 26.4 C 65.9 25.8 65.6 25.7 65.2 25.7 C 64.8 25.7 64.5 25.9 64 26.4 C 64.03 26.37 64 30.1 64 30.1 L 63 30.1 L 63 24.9 L 63.9 24.9 L 64 25 L 64 25.6 L 64 25.6 C 64 25.6 64.5 24.78 65.5 24.8 C 66.4 24.8 67 25.1 67 26.3 C 67 26.33 67 30.1 67 30.1 Z M 68.4 28.7 C 68.4 29.7 68.9 30.2 69.8 30.2 C 70.39 30.18 70.8 30.1 70.8 30.1 L 70.8 29.3 L 70.7 29.2 C 70.7 29.2 70.38 29.26 70 29.3 C 69.6 29.3 69.4 29.1 69.4 28.7 C 69.42 28.68 69.4 25.7 69.4 25.7 L 70.7 25.7 L 70.7 24.9 L 69.4 24.9 L 69.4 23.8 L 68.4 23.8 L 68.4 24.9 L 67.8 24.9 L 67.8 25.7 L 68.4 25.7 C 68.4 25.7 68.35 28.68 68.4 28.7 Z M 74.3 28.7 C 74.3 29.7 74.8 30.2 75.8 30.2 C 76.34 30.18 76.7 30.1 76.7 30.1 L 76.7 29.3 L 76.6 29.2 C 76.6 29.2 76.32 29.26 76 29.3 C 75.6 29.3 75.4 29.1 75.4 28.7 C 75.37 28.68 75.4 25.7 75.4 25.7 L 76.6 25.7 L 76.6 24.9 L 75.4 24.9 L 75.4 23.8 L 74.3 23.8 L 74.3 24.9 L 73.7 24.9 L 73.7 25.7 L 74.3 25.7 C 74.3 25.7 74.3 28.68 74.3 28.7 Z M 80.3 28.4 C 80.3 29 79.9 29.3 79.3 29.3 C 78.7 29.3 78.3 29 78.3 28.4 C 78.3 28.4 78.3 26.6 78.3 26.6 C 78.3 26 78.6 25.7 79.3 25.7 C 79.9 25.7 80.3 26 80.3 26.6 C 80.3 26.6 80.3 28.4 80.3 28.4 Z M 81.3 26.4 C 81.3 25.1 80.3 24.8 79.3 24.8 C 78.3 24.8 77.3 25.1 77.3 26.4 C 77.3 26.4 77.3 28.5 77.3 28.5 C 77.3 29.8 78.3 30.2 79.3 30.2 C 80.3 30.2 81.3 29.9 81.3 28.5 C 81.3 28.5 81.3 26.4 81.3 26.4 Z M 88.5 25.8 L 88.5 24.9 C 88.5 24.9 87.73 24.78 86.8 24.8 C 85.9 24.8 84.9 25.1 84.9 26.3 C 84.9 26.3 84.9 28.7 84.9 28.7 C 84.9 29.9 85.9 30.2 86.8 30.2 C 87.73 30.18 88.5 30.1 88.5 30.1 L 88.5 29.2 L 88.4 29.1 C 88.4 29.1 87.77 29.23 87.1 29.2 C 86.5 29.2 85.9 29.1 85.9 28.3 C 85.9 28.3 85.9 26.6 85.9 26.6 C 85.9 25.8 86.5 25.7 87.1 25.7 C 87.77 25.74 88.4 25.8 88.4 25.8 L 88.5 25.8 Z M 92.3 28.4 C 92.3 29 92 29.3 91.3 29.3 C 90.7 29.3 90.3 29 90.3 28.4 C 90.3 28.4 90.3 26.6 90.3 26.6 C 90.3 26 90.7 25.7 91.3 25.7 C 91.9 25.7 92.3 26 92.3 26.6 C 92.3 26.6 92.3 28.4 92.3 28.4 Z M 93.3 26.4 C 93.3 25.1 92.3 24.8 91.3 24.8 C 90.3 24.8 89.3 25.1 89.3 26.4 C 89.3 26.4 89.3 28.5 89.3 28.5 C 89.3 29.8 90.3 30.2 91.3 30.2 C 92.3 30.2 93.3 29.9 93.3 28.5 C 93.3 28.5 93.3 26.4 93.3 26.4 Z M 98.5 30.1 L 97.4 30.1 C 97.4 30.1 97.43 26.4 97.4 26.4 C 97.4 25.8 97.1 25.7 96.7 25.7 C 96.3 25.7 96 25.9 95.5 26.4 C 95.52 26.37 95.5 30.1 95.5 30.1 L 94.5 30.1 L 94.5 24.9 L 95.4 24.9 L 95.5 25 L 95.5 25.6 L 95.5 25.6 C 95.5 25.6 95.99 24.78 97 24.8 C 97.9 24.8 98.5 25.1 98.5 26.3 C 98.49 26.33 98.5 30.1 98.5 30.1 Z M 99.6 29.2 L 99.6 30.1 C 99.6 30.1 100.58 30.18 101.5 30.2 C 102.4 30.2 103.4 30 103.4 28.6 C 103.4 27.6 103 27 101.8 27 C 101 27 100.6 27 100.6 26.4 C 100.6 25.8 101 25.7 101.7 25.7 C 102.38 25.74 103.1 25.8 103.1 25.8 L 103.2 25.8 L 103.2 24.9 C 103.2 24.9 102.26 24.78 101.3 24.8 C 100.4 24.8 99.5 25.1 99.5 26.3 C 99.5 27.5 100.1 27.9 101.4 27.9 C 102 27.9 102.4 28 102.4 28.6 C 102.4 29.2 101.8 29.2 101 29.2 C 100.33 29.23 99.6 29.1 99.6 29.1 L 99.6 29.2 Z M 104.5 24.9 L 105.5 24.9 C 105.5 24.9 105.53 28.56 105.5 28.6 C 105.5 29.1 105.8 29.3 106.3 29.3 C 106.6 29.3 107 29.1 107.4 28.6 C 107.44 28.59 107.4 24.9 107.4 24.9 L 108.5 24.9 L 108.5 30.1 L 107.5 30.1 L 107.4 30 L 107.5 29.4 L 107.4 29.4 C 107.4 29.4 106.97 30.18 105.9 30.2 C 105.1 30.2 104.5 29.9 104.5 28.6 C 104.47 28.63 104.5 24.9 104.5 24.9 Z M 115.7 26.4 C 115.7 25.8 115.4 25.7 115 25.7 C 114.6 25.7 114.2 25.9 113.8 26.4 C 113.8 26.37 113.8 30.1 113.8 30.1 L 112.7 30.1 C 112.7 30.1 112.74 26.4 112.7 26.4 C 112.7 25.8 112.4 25.7 112 25.7 C 111.6 25.7 111.3 25.9 110.8 26.4 C 110.82 26.37 110.8 30.1 110.8 30.1 L 109.8 30.1 L 109.8 24.9 L 110.7 24.9 L 110.8 25 L 110.8 25.6 L 110.8 25.6 C 110.8 25.6 111.3 24.78 112.3 24.8 C 113 24.8 113.5 25 113.7 25.6 C 113.9 25.4 114.4 24.8 115.3 24.8 C 116.1 24.8 116.8 25.1 116.8 26.3 C 116.77 26.33 116.8 30.1 116.8 30.1 L 115.7 30.1 C 115.7 30.1 115.71 26.4 115.7 26.4 Z M 119 26.3 C 118.97 26.35 119 27 119 27 C 119 27 120.79 26.97 120.8 27 C 120.8 26.8 120.8 26.6 120.8 26.4 C 120.8 25.9 120.5 25.7 119.9 25.7 C 119.4 25.7 119 25.9 119 26.3 Z M 121.7 27.8 L 119 27.8 C 119 27.8 118.97 28.35 119 28.3 C 119 29.1 119.5 29.2 120.1 29.2 C 120.8 29.23 121.5 29.1 121.5 29.1 L 121.6 29.2 L 121.6 30.1 C 121.6 30.1 120.77 30.18 119.9 30.2 C 118.9 30.2 117.9 29.9 117.9 28.7 C 117.9 28.7 117.9 26.4 117.9 26.4 C 117.9 25.1 118.9 24.8 119.9 24.8 C 120.9 24.8 121.9 25.1 121.9 26.4 C 121.9 27 121.9 27.6 121.8 27.7 C 121.84 27.7 121.7 27.8 121.7 27.8 Z M 127.9 30.1 L 128.6 28 L 129.3 30.1 L 130.6 30.1 L 132.3 24.9 L 131.1 24.9 L 129.9 28.9 L 129.1 26.5 L 129.7 24.9 L 128.5 24.9 L 127.3 28.9 L 126.1 24.9 L 125 24.9 L 126.6 30.1 L 127.9 30.1 Z M 134.1 24.1 L 133 24.1 L 133 22.9 L 134.1 22.9 L 134.1 24.1 Z M 134.1 24.9 L 134.1 30.1 L 133 30.1 L 133 24.9 L 134.1 24.9 Z M 135.4 28.7 C 135.4 29.7 135.9 30.2 136.9 30.2 C 137.44 30.18 137.8 30.1 137.8 30.1 L 137.8 29.3 L 137.7 29.2 C 137.7 29.2 137.43 29.26 137.1 29.3 C 136.7 29.3 136.5 29.1 136.5 28.7 C 136.47 28.68 136.5 25.7 136.5 25.7 L 137.7 25.7 L 137.7 24.9 L 136.5 24.9 L 136.5 23.8 L 135.4 23.8 L 135.4 24.9 L 134.9 24.9 L 134.9 25.7 L 135.4 25.7 C 135.4 25.7 135.4 28.68 135.4 28.7 Z M 139.8 25.6 C 139.8 25.6 140.24 24.78 141.3 24.8 C 142.1 24.8 142.7 25.1 142.7 26.3 C 142.74 26.33 142.7 30.1 142.7 30.1 L 141.7 30.1 C 141.7 30.1 141.69 26.4 141.7 26.4 C 141.7 25.8 141.4 25.7 140.9 25.7 C 140.6 25.7 140.2 25.9 139.8 26.4 C 139.77 26.37 139.8 30.1 139.8 30.1 L 138.7 30.1 L 138.7 22.8 L 139.8 22.8 L 139.8 25 L 139.7 25.6 L 139.8 25.6 Z M 145.1 24.1 L 144 24.1 L 144 22.9 L 145.1 22.9 L 145.1 24.1 Z M 145.1 24.9 L 145.1 30.1 L 144 30.1 L 144 24.9 L 145.1 24.9 Z M 150.3 30.1 L 149.3 30.1 C 149.3 30.1 149.27 26.4 149.3 26.4 C 149.3 25.8 149 25.7 148.5 25.7 C 148.2 25.7 147.8 25.9 147.4 26.4 C 147.36 26.37 147.4 30.1 147.4 30.1 L 146.3 30.1 L 146.3 24.9 L 147.3 24.9 L 147.4 25 L 147.3 25.6 L 147.4 25.6 C 147.4 25.6 147.83 24.78 148.9 24.8 C 149.7 24.8 150.3 25.1 150.3 26.3 C 150.33 26.33 150.3 30.1 150.3 30.1 Z M 156.9 28.6 C 156.5 29.1 156.1 29.3 155.7 29.3 C 155.3 29.3 155.1 29.1 155.1 28.6 C 155.1 28.6 155.1 26.6 155.1 26.6 C 155.1 25.9 155.5 25.7 156 25.7 C 156.5 25.7 156.7 25.7 156.9 25.8 C 156.9 25.8 156.9 28.6 156.9 28.6 Z M 158 22.8 L 156.9 22.8 C 156.9 22.8 156.93 24.83 156.9 24.8 C 156.6 24.8 156.3 24.8 156 24.8 C 155.1 24.8 154 25.2 154 26.4 C 154 26.4 154 28.6 154 28.6 C 154 29.9 154.6 30.2 155.4 30.2 C 156.44 30.18 156.9 29.4 156.9 29.4 L 156.9 29.4 L 156.9 30 L 157 30.1 L 158 30.1 L 158 22.8 Z M 160.3 24.1 L 159.2 24.1 L 159.2 22.9 L 160.3 22.9 L 160.3 24.1 Z M 160.3 24.9 L 160.3 30.1 L 159.2 30.1 L 159.2 24.9 L 160.3 24.9 Z M 162.5 26.3 C 162.49 26.35 162.5 27 162.5 27 C 162.5 27 164.3 26.97 164.3 27 C 164.3 26.8 164.4 26.6 164.3 26.4 C 164.3 25.9 164 25.7 163.4 25.7 C 162.9 25.7 162.5 25.9 162.5 26.3 Z M 165.3 27.8 L 162.5 27.8 C 162.5 27.8 162.49 28.35 162.5 28.3 C 162.5 29.1 163 29.2 163.6 29.2 C 164.32 29.23 165 29.1 165 29.1 L 165.1 29.2 L 165.1 30.1 C 165.1 30.1 164.28 30.18 163.4 30.2 C 162.5 30.2 161.4 29.9 161.4 28.7 C 161.4 28.7 161.4 26.4 161.4 26.4 C 161.4 25.1 162.5 24.8 163.4 24.8 C 164.4 24.8 165.5 25.1 165.5 26.4 C 165.5 27 165.4 27.6 165.4 27.7 C 165.36 27.7 165.3 27.8 165.3 27.8 Z M 166.6 28.7 C 166.6 29.7 167.1 30.2 168 30.2 C 168.63 30.18 169 30.1 169 30.1 L 169 29.3 L 168.9 29.2 C 168.9 29.2 168.62 29.26 168.3 29.3 C 167.9 29.3 167.7 29.1 167.7 28.7 C 167.66 28.68 167.7 25.7 167.7 25.7 L 168.9 25.7 L 168.9 24.9 L 167.7 24.9 L 167.7 23.8 L 166.6 23.8 L 166.6 24.9 L 166 24.9 L 166 25.7 L 166.6 25.7 C 166.6 25.7 166.59 28.68 166.6 28.7 Z " stroke="none" fill="#005829"/>  </g>  <g id="Polygon163315">    <path d="M 50.9 0.3 L 50.9 7.3 L 49.6 7.3 L 47.4 2.7 L 47.4 7.3 L 46.3 7.3 L 46.3 0.3 L 47.4 0.3 L 49.8 5.3 L 49.8 0.3 L 50.9 0.3 Z M 55 5.6 C 55 6.2 54.7 6.5 54 6.5 C 53.4 6.5 53.1 6.2 53.1 5.6 C 53.1 5.6 53.1 3.8 53.1 3.8 C 53.1 3.2 53.4 2.9 54 2.9 C 54.6 2.9 55 3.2 55 3.8 C 55 3.8 55 5.6 55 5.6 Z M 56.1 3.6 C 56.1 2.3 55 2 54 2 C 53.1 2 52 2.3 52 3.6 C 52 3.6 52 5.7 52 5.7 C 52 7 53.1 7.4 54 7.4 C 55 7.4 56.1 7.1 56.1 5.7 C 56.1 5.7 56.1 3.6 56.1 3.6 Z M 57.3 5.9 C 57.3 6.9 57.8 7.4 58.8 7.4 C 59.33 7.38 59.7 7.3 59.7 7.3 L 59.7 6.5 L 59.6 6.4 C 59.6 6.4 59.32 6.46 59 6.5 C 58.6 6.5 58.4 6.3 58.4 5.9 C 58.37 5.88 58.4 2.9 58.4 2.9 L 59.6 2.9 L 59.6 2.1 L 58.4 2.1 L 58.4 1 L 57.3 1 L 57.3 2.1 L 56.7 2.1 L 56.7 2.9 L 57.3 2.9 C 57.3 2.9 57.3 5.88 57.3 5.9 Z M 64.2 3.6 C 64.7 3 65 2.9 65.4 2.9 C 65.8 2.9 66.1 3 66.1 3.6 C 66.1 3.6 66.1 5.5 66.1 5.5 C 66.1 6.2 65.7 6.4 65.2 6.4 C 64.9 6.4 64.5 6.4 64.2 6.4 C 64.2 6.4 64.2 3.6 64.2 3.6 Z M 63.2 9.1 L 64.2 9.1 C 64.2 9.1 64.23 7.33 64.2 7.3 C 64.5 7.4 64.8 7.4 65.2 7.4 C 66.1 7.4 67.2 7 67.2 5.8 C 67.2 5.8 67.2 3.5 67.2 3.5 C 67.2 2.3 66.6 2 65.7 2 C 64.71 1.98 64.3 2.8 64.3 2.8 L 64.2 2.8 L 64.2 2.2 L 64.2 2.1 L 63.2 2.1 L 63.2 9.1 Z M 70.9 3 C 70.5 3 69.9 3 69.3 3.6 C 69.32 3.6 69.3 7.3 69.3 7.3 L 68.3 7.3 L 68.3 2.1 L 69.2 2.1 L 69.3 2.2 L 69.3 2.8 C 69.3 2.8 69.34 2.75 69.3 2.8 C 69.3 2.8 69.9 1.9 71 2 C 71.01 1.98 71 3 71 3 C 71 3 70.93 3.05 70.9 3 Z M 74.5 5.6 C 74.5 6.2 74.2 6.5 73.6 6.5 C 73 6.5 72.6 6.2 72.6 5.6 C 72.6 5.6 72.6 3.8 72.6 3.8 C 72.6 3.2 72.9 2.9 73.6 2.9 C 74.2 2.9 74.5 3.2 74.5 3.8 C 74.5 3.8 74.5 5.6 74.5 5.6 Z M 75.6 3.6 C 75.6 2.3 74.6 2 73.6 2 C 72.6 2 71.6 2.3 71.6 3.6 C 71.6 3.6 71.6 5.7 71.6 5.7 C 71.6 7 72.6 7.4 73.6 7.4 C 74.6 7.4 75.6 7.1 75.6 5.7 C 75.6 5.7 75.6 3.6 75.6 3.6 Z M 79.6 5.8 C 79.1 6.3 78.7 6.5 78.4 6.5 C 78 6.5 77.7 6.3 77.7 5.8 C 77.7 5.8 77.7 3.8 77.7 3.8 C 77.7 3.1 78.2 2.9 78.6 2.9 C 79.1 2.9 79.3 2.9 79.6 3 C 79.6 3 79.6 5.8 79.6 5.8 Z M 80.6 0 L 79.6 0 C 79.6 0 79.55 2.03 79.6 2 C 79.3 2 79 2 78.6 2 C 77.7 2 76.6 2.4 76.6 3.6 C 76.6 3.6 76.6 5.8 76.6 5.8 C 76.6 7.1 77.2 7.4 78 7.4 C 79.07 7.38 79.5 6.6 79.5 6.6 L 79.6 6.6 L 79.6 7.2 L 79.6 7.3 L 80.6 7.3 L 80.6 0 Z M 81.9 2.1 L 82.9 2.1 C 82.9 2.1 82.91 5.76 82.9 5.8 C 82.9 6.3 83.2 6.5 83.6 6.5 C 84 6.5 84.4 6.3 84.8 5.8 C 84.83 5.79 84.8 2.1 84.8 2.1 L 85.9 2.1 L 85.9 7.3 L 84.9 7.3 L 84.8 7.2 L 84.8 6.6 L 84.8 6.6 C 84.8 6.6 84.35 7.38 83.3 7.4 C 82.5 7.4 81.9 7.1 81.9 5.8 C 81.85 5.83 81.9 2.1 81.9 2.1 Z M 90.6 3 L 90.6 2.1 C 90.6 2.1 89.89 1.98 89 2 C 88.1 2 87 2.3 87 3.5 C 87 3.5 87 5.9 87 5.9 C 87 7.1 88.1 7.4 89 7.4 C 89.89 7.38 90.6 7.3 90.6 7.3 L 90.6 6.4 L 90.6 6.3 C 90.6 6.3 89.92 6.43 89.2 6.4 C 88.6 6.4 88.1 6.3 88.1 5.5 C 88.1 5.5 88.1 3.8 88.1 3.8 C 88.1 3 88.6 2.9 89.2 2.9 C 89.92 2.94 90.6 3 90.6 3 L 90.6 3 Z M 92.5 3.5 C 92.5 3.55 92.5 4.2 92.5 4.2 C 92.5 4.2 94.32 4.17 94.3 4.2 C 94.3 4 94.4 3.8 94.4 3.6 C 94.3 3.1 94 2.9 93.5 2.9 C 92.9 2.9 92.5 3.1 92.5 3.5 Z M 95.3 5 L 92.5 5 C 92.5 5 92.5 5.55 92.5 5.5 C 92.5 6.3 93 6.4 93.6 6.4 C 94.33 6.43 95 6.3 95 6.3 L 95.1 6.4 L 95.1 7.3 C 95.1 7.3 94.3 7.38 93.4 7.4 C 92.5 7.4 91.4 7.1 91.4 5.9 C 91.4 5.9 91.4 3.6 91.4 3.6 C 91.4 2.3 92.5 2 93.5 2 C 94.4 2 95.5 2.3 95.5 3.6 C 95.5 4.2 95.4 4.8 95.4 4.9 C 95.37 4.9 95.3 5 95.3 5 Z M 99.3 5.8 C 98.9 6.3 98.5 6.5 98.1 6.5 C 97.7 6.5 97.5 6.3 97.5 5.8 C 97.5 5.8 97.5 3.8 97.5 3.8 C 97.5 3.1 97.9 2.9 98.4 2.9 C 98.9 2.9 99.1 2.9 99.3 3 C 99.3 3 99.3 5.8 99.3 5.8 Z M 100.4 0 L 99.3 0 C 99.3 0 99.32 2.03 99.3 2 C 99 2 98.7 2 98.4 2 C 97.4 2 96.4 2.4 96.4 3.6 C 96.4 3.6 96.4 5.8 96.4 5.8 C 96.4 7.1 97 7.4 97.8 7.4 C 98.83 7.38 99.3 6.6 99.3 6.6 L 99.3 6.6 L 99.3 7.2 L 99.4 7.3 L 100.4 7.3 L 100.4 0 Z M 105.2 6.4 C 105.5 6.4 105.9 6.4 106.2 6.4 C 106.7 6.4 107.1 6.2 107.1 5.5 C 107.1 5.5 107.1 3.6 107.1 3.6 C 107.1 3 106.8 2.9 106.4 2.9 C 106 2.9 105.7 3.1 105.2 3.6 C 105.2 3.6 105.2 6.4 105.2 6.4 Z M 105.2 0 L 105.2 2.1 L 105.2 2.8 L 105.2 2.8 C 105.2 2.8 105.69 1.98 106.7 2 C 107.6 2 108.1 2.3 108.1 3.5 C 108.1 3.5 108.1 5.8 108.1 5.8 C 108.1 7 107.1 7.4 106.2 7.4 C 105.3 7.4 104.1 7.3 104.2 7.3 C 104.23 7.27 104.2 7.2 104.2 7.2 L 104.2 0 L 105.2 0 Z M 110.1 5.8 C 110.1 6.3 110.4 6.5 110.9 6.5 C 111.2 6.5 111.6 6.3 112 5.8 C 112.04 5.8 112 2.1 112 2.1 L 113.1 2.1 C 113.1 2.1 113.09 7.7 113.1 7.7 C 113.1 8.9 112.1 9.2 111.1 9.2 C 110.23 9.25 109.4 9.1 109.4 9.1 L 109.4 8.3 L 109.5 8.2 C 109.5 8.2 110.19 8.29 110.9 8.3 C 111.5 8.3 112 8.2 112 7.4 C 112.04 7.39 112 7.2 112 7.2 L 112.1 6.6 L 112 6.6 C 112 6.6 111.55 7.38 110.5 7.4 C 109.7 7.4 109.1 7.1 109.1 5.8 C 109.05 5.84 109.1 2.1 109.1 2.1 L 110.1 2.1 C 110.1 2.1 110.12 5.77 110.1 5.8 Z M 117 5.9 C 117 6.9 117.5 7.4 118.4 7.4 C 119.01 7.38 119.4 7.3 119.4 7.3 L 119.4 6.5 L 119.3 6.4 C 119.3 6.4 119 6.46 118.6 6.5 C 118.3 6.5 118 6.3 118 5.9 C 118.05 5.88 118 2.9 118 2.9 L 119.3 2.9 L 119.3 2.1 L 118 2.1 L 118 1 L 117 1 L 117 2.1 L 116.4 2.1 L 116.4 2.9 L 117 2.9 C 117 2.9 116.98 5.88 117 5.9 Z M 121.4 2.8 C 121.4 2.8 121.82 1.98 122.8 2 C 123.7 2 124.3 2.3 124.3 3.5 C 124.32 3.53 124.3 7.3 124.3 7.3 L 123.3 7.3 C 123.3 7.3 123.27 3.6 123.3 3.6 C 123.3 3 122.9 2.9 122.5 2.9 C 122.2 2.9 121.8 3.1 121.3 3.6 C 121.35 3.57 121.3 7.3 121.3 7.3 L 120.3 7.3 L 120.3 0 L 121.3 0 L 121.3 2.2 L 121.3 2.8 L 121.4 2.8 Z M 126.5 3.5 C 126.52 3.55 126.5 4.2 126.5 4.2 C 126.5 4.2 128.34 4.17 128.3 4.2 C 128.4 4 128.4 3.8 128.4 3.6 C 128.4 3.1 128 2.9 127.5 2.9 C 126.9 2.9 126.5 3.1 126.5 3.5 Z M 129.3 5 L 126.5 5 C 126.5 5 126.52 5.55 126.5 5.5 C 126.5 6.3 127 6.4 127.7 6.4 C 128.35 6.43 129 6.3 129 6.3 L 129.1 6.4 L 129.1 7.3 C 129.1 7.3 128.32 7.38 127.4 7.4 C 126.5 7.4 125.5 7.1 125.5 5.9 C 125.5 5.9 125.5 3.6 125.5 3.6 C 125.5 2.3 126.5 2 127.5 2 C 128.5 2 129.5 2.3 129.5 3.6 C 129.5 4.2 129.4 4.8 129.4 4.9 C 129.4 4.9 129.3 5 129.3 5 Z M 134.1 6.4 C 134.4 6.4 134.8 6.4 135.1 6.4 C 135.6 6.4 136 6.2 136 5.5 C 136 5.5 136 3.6 136 3.6 C 136 3 135.7 2.9 135.3 2.9 C 134.9 2.9 134.6 3.1 134.1 3.6 C 134.1 3.6 134.1 6.4 134.1 6.4 Z M 134.1 0 L 134.1 2.1 L 134.1 2.8 L 134.1 2.8 C 134.1 2.8 134.6 1.98 135.6 2 C 136.5 2 137 2.3 137 3.5 C 137 3.5 137 5.8 137 5.8 C 137 7 136 7.4 135.1 7.4 C 134.2 7.4 133 7.3 133.1 7.3 C 133.13 7.27 133.1 7.2 133.1 7.2 L 133.1 0 L 134.1 0 Z M 141 5.6 C 141 6.2 140.7 6.5 140.1 6.5 C 139.5 6.5 139.1 6.2 139.1 5.6 C 139.1 5.6 139.1 3.8 139.1 3.8 C 139.1 3.2 139.4 2.9 140.1 2.9 C 140.7 2.9 141 3.2 141 3.8 C 141 3.8 141 5.6 141 5.6 Z M 142.1 3.6 C 142.1 2.3 141.1 2 140.1 2 C 139.1 2 138.1 2.3 138.1 3.6 C 138.1 3.6 138.1 5.7 138.1 5.7 C 138.1 7 139.1 7.4 140.1 7.4 C 141.1 7.4 142.1 7.1 142.1 5.7 C 142.1 5.7 142.1 3.6 142.1 3.6 Z M 146.1 5.8 C 145.6 6.3 145.2 6.5 144.9 6.5 C 144.5 6.5 144.2 6.3 144.2 5.8 C 144.2 5.8 144.2 3.8 144.2 3.8 C 144.2 3.1 144.7 2.9 145.2 2.9 C 145.6 2.9 145.8 2.9 146.1 3 C 146.1 3 146.1 5.8 146.1 5.8 Z M 147.1 0 L 146.1 0 C 146.1 0 146.06 2.03 146.1 2 C 145.8 2 145.5 2 145.1 2 C 144.2 2 143.1 2.4 143.1 3.6 C 143.1 3.6 143.1 5.8 143.1 5.8 C 143.1 7.1 143.7 7.4 144.5 7.4 C 145.57 7.38 146 6.6 146 6.6 L 146.1 6.6 L 146.1 7.2 L 146.1 7.3 L 147.1 7.3 L 147.1 0 Z M 149.4 5.8 C 149.4 6.3 149.7 6.5 150.2 6.5 C 150.5 6.5 150.9 6.3 151.3 5.8 C 151.34 5.8 151.3 2.1 151.3 2.1 L 152.4 2.1 C 152.4 2.1 152.4 7.7 152.4 7.7 C 152.4 8.9 151.4 9.2 150.5 9.2 C 149.54 9.25 148.7 9.1 148.7 9.1 L 148.7 8.3 L 148.8 8.2 C 148.8 8.2 149.5 8.29 150.2 8.3 C 150.8 8.3 151.3 8.2 151.3 7.4 C 151.34 7.39 151.3 7.2 151.3 7.2 L 151.4 6.6 L 151.3 6.6 C 151.3 6.6 150.86 7.38 149.8 7.4 C 149 7.4 148.4 7.1 148.4 5.8 C 148.36 5.84 148.4 2.1 148.4 2.1 L 149.4 2.1 C 149.4 2.1 149.43 5.77 149.4 5.8 Z " stroke="none" fill="#005829"/>  </g></svg>