<?xml version="1.0" standalone="no"?><!DOCTYPE svg PUBLIC "-//W3C//DTD SVG 1.1//EN" "http://www.w3.org/Graphics/SVG/1.1/DTD/svg11.dtd"><svg xmlns="http://www.w3.org/2000/svg" version="1.1" width="106px" height="49.8px" viewBox="0 -4 106 49.8" style="top:-4px">  <desc>Sleep disturbances</desc>  <defs/>  <g id="Polygon188031">    <path d="M 32.1 15.8 L 32.6 15.8 L 32.6 9.5 L 32.1 9.5 L 32.1 12.1 C 32.1 12.1 32.07 12.14 32.1 12.1 C 31.9 11.7 31.4 11.4 30.8 11.4 C 29.6 11.4 29 12.2 29 13.6 C 29 15 29.6 15.9 30.8 15.9 C 31.4 15.9 31.8 15.5 32.1 15.1 C 32.07 15.06 32.1 15.1 32.1 15.1 L 32.1 15.8 Z M 29.5 13.9 C 29.5 13.9 29.5 13.3 29.5 13.3 C 29.5 12.4 30 11.8 30.9 11.8 C 31.2 11.8 31.5 11.9 31.7 12 C 32 12.2 32.1 12.5 32.1 12.7 C 32.1 12.7 32.1 14.4 32.1 14.4 C 32.1 14.7 32 15 31.7 15.2 C 31.5 15.3 31.2 15.4 30.9 15.4 C 30 15.4 29.5 14.8 29.5 13.9 Z M 34.8 10 C 34.8 10 34.8 9.9 34.8 9.9 C 34.8 9.7 34.7 9.6 34.5 9.6 C 34.2 9.6 34.1 9.7 34.1 9.9 C 34.1 9.9 34.1 10 34.1 10 C 34.1 10.2 34.2 10.3 34.5 10.3 C 34.7 10.3 34.8 10.2 34.8 10 Z M 34.2 15.8 L 34.7 15.8 L 34.7 11.5 L 34.2 11.5 L 34.2 15.8 Z M 39.1 14.6 C 39.1 13.9 38.7 13.5 37.8 13.4 C 37.8 13.4 37.5 13.3 37.5 13.3 C 36.8 13.2 36.5 13 36.5 12.5 C 36.5 12 36.9 11.8 37.5 11.8 C 38.1 11.8 38.5 12 38.7 12.3 C 38.7 12.3 39 12 39 12 C 38.7 11.6 38.3 11.4 37.5 11.4 C 37.1 11.4 36.8 11.5 36.5 11.7 C 36.2 11.9 36.1 12.2 36.1 12.6 C 36.1 13 36.2 13.2 36.4 13.4 C 36.7 13.6 37 13.7 37.4 13.8 C 37.4 13.8 37.7 13.8 37.7 13.8 C 38.4 13.9 38.6 14.2 38.6 14.6 C 38.6 15.2 38.3 15.4 37.6 15.4 C 37 15.4 36.6 15.2 36.3 14.8 C 36.3 14.8 35.9 15 35.9 15 C 36.3 15.6 36.8 15.9 37.6 15.9 C 38.5 15.9 39.1 15.4 39.1 14.6 Z M 42 15.8 L 42 15.3 L 41.1 15.3 L 41.1 11.9 L 42.1 11.9 L 42.1 11.5 L 41.1 11.5 L 41.1 10.2 L 40.7 10.2 C 40.7 10.2 40.65 11.12 40.7 11.1 C 40.7 11.4 40.6 11.5 40.4 11.5 C 40.35 11.45 39.9 11.5 39.9 11.5 L 39.9 11.9 L 40.6 11.9 C 40.6 11.9 40.61 15.22 40.6 15.2 C 40.6 15.6 40.8 15.8 41.1 15.8 C 41.14 15.75 42 15.8 42 15.8 Z M 46 15.8 L 46.5 15.8 L 46.5 11.5 L 46 11.5 C 46 11.5 45.99 14.47 46 14.5 C 46 14.8 45.9 15 45.6 15.2 C 45.4 15.3 45.1 15.4 44.8 15.4 C 44.1 15.4 43.7 15 43.7 14.1 C 43.72 14.12 43.7 11.5 43.7 11.5 L 43.2 11.5 C 43.2 11.5 43.24 14.21 43.2 14.2 C 43.2 15.3 43.8 15.9 44.7 15.9 C 45.1 15.9 45.3 15.8 45.5 15.6 C 45.7 15.5 45.9 15.3 46 15.1 C 45.95 15.07 46 15.1 46 15.1 L 46 15.8 Z M 48.6 15.8 C 48.6 15.8 48.59 12.81 48.6 12.8 C 48.6 12.2 49.1 11.9 49.8 11.9 C 49.82 11.92 50.2 11.9 50.2 11.9 L 50.2 11.5 C 50.2 11.5 49.91 11.45 49.9 11.5 C 49.2 11.5 48.8 11.8 48.6 12.2 C 48.62 12.22 48.6 12.2 48.6 12.2 L 48.6 11.5 L 48.1 11.5 L 48.1 15.8 L 48.6 15.8 Z M 51.2 15.8 L 51.7 15.8 L 51.7 15.1 C 51.7 15.1 51.7 15.06 51.7 15.1 C 51.9 15.5 52.3 15.9 53 15.9 C 54.1 15.9 54.8 15 54.8 13.6 C 54.8 12.2 54.1 11.4 53 11.4 C 52.3 11.4 51.9 11.7 51.7 12.1 C 51.7 12.14 51.7 12.1 51.7 12.1 L 51.7 9.5 L 51.2 9.5 L 51.2 15.8 Z M 52 15.2 C 51.8 15 51.7 14.7 51.7 14.4 C 51.7 14.4 51.7 12.7 51.7 12.7 C 51.7 12.5 51.8 12.2 52 12 C 52.3 11.9 52.6 11.8 52.9 11.8 C 53.8 11.8 54.3 12.4 54.3 13.3 C 54.3 13.3 54.3 13.9 54.3 13.9 C 54.3 14.8 53.8 15.4 52.9 15.4 C 52.6 15.4 52.3 15.3 52 15.2 Z M 59 12.8 C 58.96 12.79 59 15.8 59 15.8 L 58.5 15.8 L 58.5 15.1 C 58.5 15.1 58.47 15.07 58.5 15.1 C 58.3 15.6 57.8 15.9 57.2 15.9 C 56.3 15.9 55.7 15.4 55.7 14.6 C 55.7 13.8 56.3 13.3 57.5 13.3 C 57.49 13.34 58.5 13.3 58.5 13.3 C 58.5 13.3 58.49 12.84 58.5 12.8 C 58.5 12.1 58.1 11.8 57.4 11.8 C 56.8 11.8 56.4 12 56.2 12.5 C 56.2 12.5 55.9 12.2 55.9 12.2 C 56.1 11.7 56.6 11.4 57.4 11.4 C 58.4 11.4 59 11.9 59 12.8 Z M 58.5 13.7 C 58.5 13.7 57.48 13.7 57.5 13.7 C 56.6 13.7 56.3 14 56.3 14.5 C 56.3 14.5 56.3 14.7 56.3 14.7 C 56.3 15.2 56.6 15.4 57.2 15.4 C 57.6 15.4 57.9 15.3 58.1 15.2 C 58.4 15 58.5 14.8 58.5 14.5 C 58.49 14.5 58.5 13.7 58.5 13.7 Z M 61 15.8 C 61 15.8 61.03 12.73 61 12.7 C 61 12.4 61.2 12.2 61.4 12 C 61.6 11.9 61.9 11.8 62.2 11.8 C 62.9 11.8 63.3 12.2 63.3 13.1 C 63.3 13.07 63.3 15.8 63.3 15.8 L 63.8 15.8 C 63.8 15.8 63.78 12.99 63.8 13 C 63.8 11.9 63.2 11.4 62.3 11.4 C 61.6 11.4 61.2 11.7 61.1 12.1 C 61.06 12.13 61 12.1 61 12.1 L 61 11.5 L 60.6 11.5 L 60.6 15.8 L 61 15.8 Z M 68.5 14.9 C 68.5 14.9 68.1 14.7 68.1 14.7 C 67.9 15.2 67.5 15.4 66.9 15.4 C 66 15.4 65.5 14.8 65.5 13.9 C 65.5 13.9 65.5 13.3 65.5 13.3 C 65.5 12.4 66 11.8 66.9 11.8 C 67.4 11.8 67.8 12 68 12.5 C 68 12.5 68.4 12.3 68.4 12.3 C 68.1 11.7 67.7 11.4 66.9 11.4 C 65.7 11.4 65 12.2 65 13.6 C 65 15 65.7 15.9 66.9 15.9 C 67.7 15.9 68.2 15.5 68.5 14.9 Z M 72.8 14.8 C 72.8 14.8 72.4 14.6 72.4 14.6 C 72.2 15.1 71.7 15.4 71.1 15.4 C 70.7 15.4 70.3 15.3 70.1 15 C 69.8 14.7 69.7 14.3 69.7 13.9 C 69.71 13.9 69.7 13.7 69.7 13.7 L 72.9 13.7 C 72.9 13.7 72.89 13.47 72.9 13.5 C 72.9 12.8 72.7 12.3 72.4 11.9 C 72.1 11.6 71.6 11.4 71.1 11.4 C 70.5 11.4 70 11.6 69.7 11.9 C 69.4 12.3 69.2 12.9 69.2 13.6 C 69.2 14.3 69.4 14.9 69.7 15.3 C 70 15.6 70.5 15.9 71.1 15.9 C 71.9 15.9 72.5 15.4 72.8 14.8 Z M 72 12.2 C 72.2 12.4 72.4 12.8 72.4 13.3 C 72.37 13.26 72.4 13.3 72.4 13.3 L 69.7 13.3 C 69.7 13.3 69.71 13.28 69.7 13.3 C 69.7 12.8 69.8 12.5 70.1 12.2 C 70.3 11.9 70.7 11.8 71.1 11.8 C 71.5 11.8 71.8 11.9 72 12.2 Z M 76.9 14.6 C 76.9 13.9 76.5 13.5 75.7 13.4 C 75.7 13.4 75.3 13.3 75.3 13.3 C 74.7 13.2 74.4 13 74.4 12.5 C 74.4 12 74.7 11.8 75.4 11.8 C 76 11.8 76.3 12 76.5 12.3 C 76.5 12.3 76.9 12 76.9 12 C 76.5 11.6 76.1 11.4 75.4 11.4 C 75 11.4 74.6 11.5 74.3 11.7 C 74.1 11.9 73.9 12.2 73.9 12.6 C 73.9 13 74.1 13.2 74.3 13.4 C 74.5 13.6 74.8 13.7 75.2 13.8 C 75.2 13.8 75.6 13.8 75.6 13.8 C 76.2 13.9 76.5 14.2 76.5 14.6 C 76.5 15.2 76.1 15.4 75.4 15.4 C 74.9 15.4 74.5 15.2 74.1 14.8 C 74.1 14.8 73.8 15 73.8 15 C 74.2 15.6 74.7 15.9 75.4 15.9 C 76.4 15.9 76.9 15.4 76.9 14.6 Z " stroke="none" fill="#474747"/>  </g>  <g id="Polygon188030">    <path d="M 46.7 5 C 46.7 4.1 46.2 3.6 45.1 3.4 C 45.1 3.4 44.6 3.2 44.6 3.2 C 43.8 3.1 43.3 2.8 43.3 2.1 C 43.3 1.4 43.9 1 44.7 1 C 45.4 1 45.9 1.3 46.2 1.8 C 46.2 1.8 46.6 1.5 46.6 1.5 C 46.2 0.9 45.6 0.6 44.7 0.6 C 44.2 0.6 43.7 0.7 43.4 1 C 43 1.2 42.9 1.6 42.9 2.1 C 42.9 3 43.3 3.5 44.4 3.7 C 44.4 3.7 45 3.8 45 3.8 C 45.7 4 46.2 4.3 46.2 5 C 46.2 5.8 45.7 6.2 44.7 6.2 C 44 6.2 43.5 5.9 43.1 5.3 C 43.1 5.3 42.7 5.7 42.7 5.7 C 43.2 6.3 43.8 6.7 44.7 6.7 C 45.9 6.7 46.7 6 46.7 5 Z M 49.1 6.6 L 49.1 6.1 L 48.5 6.1 L 48.5 0.3 L 48 0.3 C 48 0.3 47.98 6.03 48 6 C 48 6.3 48.2 6.6 48.5 6.6 C 48.51 6.55 49.1 6.6 49.1 6.6 Z M 53.5 5.6 C 53.5 5.6 53.1 5.4 53.1 5.4 C 52.9 5.9 52.5 6.2 51.8 6.2 C 51.4 6.2 51.1 6.1 50.8 5.8 C 50.6 5.5 50.4 5.1 50.4 4.7 C 50.44 4.7 50.4 4.5 50.4 4.5 L 53.6 4.5 C 53.6 4.5 53.62 4.27 53.6 4.3 C 53.6 3.6 53.4 3.1 53.1 2.7 C 52.8 2.4 52.4 2.2 51.8 2.2 C 51.2 2.2 50.8 2.4 50.4 2.7 C 50.1 3.1 49.9 3.7 49.9 4.4 C 49.9 5.1 50.1 5.7 50.4 6.1 C 50.8 6.4 51.2 6.7 51.8 6.7 C 52.6 6.7 53.2 6.2 53.5 5.6 Z M 52.7 3 C 53 3.2 53.1 3.6 53.1 4.1 C 53.1 4.06 53.1 4.1 53.1 4.1 L 50.4 4.1 C 50.4 4.1 50.44 4.08 50.4 4.1 C 50.4 3.6 50.6 3.3 50.8 3 C 51.1 2.7 51.4 2.6 51.8 2.6 C 52.2 2.6 52.5 2.7 52.7 3 Z M 58.1 5.6 C 58.1 5.6 57.8 5.4 57.8 5.4 C 57.5 5.9 57.1 6.2 56.5 6.2 C 56 6.2 55.7 6.1 55.5 5.8 C 55.2 5.5 55.1 5.1 55.1 4.7 C 55.08 4.7 55.1 4.5 55.1 4.5 L 58.3 4.5 C 58.3 4.5 58.27 4.27 58.3 4.3 C 58.3 3.6 58.1 3.1 57.8 2.7 C 57.5 2.4 57 2.2 56.5 2.2 C 55.9 2.2 55.4 2.4 55.1 2.7 C 54.8 3.1 54.6 3.7 54.6 4.4 C 54.6 5.1 54.8 5.7 55.1 6.1 C 55.4 6.4 55.9 6.7 56.5 6.7 C 57.3 6.7 57.9 6.2 58.1 5.6 Z M 57.4 3 C 57.6 3.2 57.7 3.6 57.7 4.1 C 57.75 4.06 57.7 4.1 57.7 4.1 L 55.1 4.1 C 55.1 4.1 55.08 4.08 55.1 4.1 C 55.1 3.6 55.2 3.3 55.5 3 C 55.7 2.7 56 2.6 56.5 2.6 C 56.8 2.6 57.2 2.7 57.4 3 Z M 59.6 8.2 L 60 8.2 L 60 5.9 C 60 5.9 60.07 5.86 60.1 5.9 C 60.3 6.3 60.7 6.7 61.4 6.7 C 62.5 6.7 63.2 5.8 63.2 4.4 C 63.2 3 62.5 2.2 61.4 2.2 C 60.7 2.2 60.3 2.5 60.1 2.9 C 60.07 2.94 60 2.9 60 2.9 L 60 2.3 L 59.6 2.3 L 59.6 8.2 Z M 60.4 6 C 60.2 5.8 60 5.5 60 5.2 C 60 5.2 60 3.5 60 3.5 C 60 3.3 60.2 3 60.4 2.8 C 60.6 2.7 60.9 2.6 61.3 2.6 C 62.1 2.6 62.6 3.2 62.6 4.1 C 62.6 4.1 62.6 4.7 62.6 4.7 C 62.6 5.6 62.1 6.2 61.3 6.2 C 60.9 6.2 60.6 6.1 60.4 6 Z " stroke="none" fill="#474747"/>  </g></svg>