<?xml version="1.0" standalone="no"?><!DOCTYPE svg PUBLIC "-//W3C//DTD SVG 1.1//EN" "http://www.w3.org/Graphics/SVG/1.1/DTD/svg11.dtd"><svg xmlns="http://www.w3.org/2000/svg" version="1.1" width="924.3px" height="90.2px" viewBox="0 -11 924.3 90.2" style="top:-11px">  <desc>Foods that contain leucine include:</desc>  <defs/>  <g id="Polygon145885">    <path d="M 6.4 21.8 L 6.4 13.8 L 13.8 13.8 L 13.8 10.1 L 6.4 10.1 L 6.4 6.1 L 15.1 6.1 L 15.1 2.3 L 2.2 2.3 L 2.2 21.8 L 6.4 21.8 Z M 28.4 20.1 C 29.6 18.8 30.3 16.8 30.3 14.5 C 30.3 12.1 29.6 10.2 28.4 8.8 C 27.3 7.5 25.5 6.8 23.4 6.8 C 21.2 6.8 19.5 7.5 18.3 8.8 C 17.2 10.2 16.5 12.1 16.5 14.5 C 16.5 16.8 17.2 18.8 18.3 20.1 C 19.5 21.4 21.2 22.2 23.4 22.2 C 25.5 22.2 27.3 21.4 28.4 20.1 Z M 20.8 16 C 20.8 16 20.8 13 20.8 13 C 20.8 11.1 21.7 10.1 23.4 10.1 C 25 10.1 26 11.1 26 13 C 26 13 26 16 26 16 C 26 17.9 25 18.9 23.4 18.9 C 21.7 18.9 20.8 17.9 20.8 16 Z M 44.2 20.1 C 45.4 18.8 46.1 16.8 46.1 14.5 C 46.1 12.1 45.4 10.2 44.2 8.8 C 43.1 7.5 41.3 6.8 39.2 6.8 C 37 6.8 35.3 7.5 34.1 8.8 C 33 10.2 32.3 12.1 32.3 14.5 C 32.3 16.8 33 18.8 34.1 20.1 C 35.3 21.4 37 22.2 39.2 22.2 C 41.3 22.2 43.1 21.4 44.2 20.1 Z M 36.6 16 C 36.6 16 36.6 13 36.6 13 C 36.6 11.1 37.5 10.1 39.2 10.1 C 40.8 10.1 41.7 11.1 41.7 13 C 41.7 13 41.7 16 41.7 16 C 41.7 17.9 40.8 18.9 39.2 18.9 C 37.5 18.9 36.6 17.9 36.6 16 Z M 58 21.8 L 62.2 21.8 L 62.2 1.1 L 58 1.1 L 58 9.6 C 58 9.6 57.88 9.6 57.9 9.6 C 57.5 8 55.8 6.8 53.9 6.8 C 50.2 6.8 48.3 9.5 48.3 14.5 C 48.3 19.5 50.2 22.2 53.9 22.2 C 54.9 22.2 55.8 21.9 56.5 21.4 C 57.1 20.9 57.7 20.2 57.9 19.4 C 57.88 19.38 58 19.4 58 19.4 L 58 21.8 Z M 52.6 15.8 C 52.6 15.8 52.6 13.2 52.6 13.2 C 52.6 11.3 53.7 10.2 55.3 10.2 C 56.9 10.2 58 11 58 12.3 C 58 12.3 58 16.7 58 16.7 C 58 18 56.9 18.8 55.3 18.8 C 53.7 18.8 52.6 17.6 52.6 15.8 Z M 75.6 20.8 C 76.7 19.9 77.3 18.7 77.3 17.3 C 77.3 14.8 75.7 13.3 72.5 12.9 C 72.5 12.9 70.8 12.6 70.8 12.6 C 69.6 12.4 69.3 12 69.3 11.3 C 69.3 10.5 69.8 10 71.2 10 C 72.5 10 73.7 10.6 74.6 11.5 C 74.6 11.5 77 9.1 77 9.1 C 76.2 8.4 75.5 7.8 74.6 7.4 C 73.7 7 72.5 6.8 71 6.8 C 69.2 6.8 67.8 7.3 66.9 8.1 C 65.9 9 65.3 10.2 65.3 11.6 C 65.3 14.2 66.9 15.7 70.3 16.1 C 70.3 16.1 71.8 16.3 71.8 16.3 C 72.8 16.5 73.3 16.9 73.3 17.6 C 73.3 18.4 72.8 19 71.1 19 C 69.6 19 68.3 18.2 67.3 17.1 C 67.3 17.1 64.8 19.5 64.8 19.5 C 66.4 21.2 68.2 22.2 71 22.2 C 72.9 22.2 74.5 21.7 75.6 20.8 Z M 94.4 21.8 L 94.4 18.6 L 91.7 18.6 L 91.7 10.4 L 94.6 10.4 L 94.6 7.1 L 91.7 7.1 L 91.7 3.2 L 87.9 3.2 C 87.9 3.2 87.95 5.57 87.9 5.6 C 87.9 6.6 87.6 7.1 86.5 7.1 C 86.49 7.14 85.5 7.1 85.5 7.1 L 85.5 10.4 L 87.5 10.4 C 87.5 10.4 87.53 17.56 87.5 17.6 C 87.5 20.4 89 21.8 91.9 21.8 C 91.89 21.84 94.4 21.8 94.4 21.8 Z M 97.5 21.8 L 101.6 21.8 C 101.6 21.8 101.61 12.32 101.6 12.3 C 101.6 11.6 101.9 11.1 102.5 10.7 C 103 10.3 103.6 10.2 104.3 10.2 C 105.8 10.2 106.3 11.1 106.3 13 C 106.31 12.96 106.3 21.8 106.3 21.8 L 110.5 21.8 C 110.5 21.8 110.46 12.63 110.5 12.6 C 110.5 8.9 108.9 6.8 105.9 6.8 C 103.5 6.8 102.3 8.1 101.8 9.6 C 101.78 9.63 101.6 9.6 101.6 9.6 L 101.6 1.1 L 97.5 1.1 L 97.5 21.8 Z M 125.9 12.2 C 125.94 12.18 125.9 21.8 125.9 21.8 L 122.2 21.8 L 122.2 19.3 C 122.2 19.3 122.05 19.26 122.1 19.3 C 121.6 21.2 120 22.2 117.7 22.2 C 114.8 22.2 113.2 20.5 113.2 17.9 C 113.2 14.8 115.6 13.3 119.5 13.3 C 119.47 13.3 121.8 13.3 121.8 13.3 C 121.8 13.3 121.8 12.38 121.8 12.4 C 121.8 10.9 121.1 10.1 119.4 10.1 C 117.7 10.1 116.8 10.9 116.2 11.8 C 116.2 11.8 113.7 9.6 113.7 9.6 C 114.9 7.8 116.6 6.8 119.7 6.8 C 123.8 6.8 125.9 8.7 125.9 12.2 Z M 121.8 15.7 C 121.8 15.7 119.78 15.65 119.8 15.7 C 118.2 15.7 117.3 16.2 117.3 17.3 C 117.3 17.3 117.3 17.7 117.3 17.7 C 117.3 18.8 118 19.3 119.3 19.3 C 120.7 19.3 121.8 18.7 121.8 17.4 C 121.8 17.39 121.8 15.7 121.8 15.7 Z M 137.1 21.8 L 137.1 18.6 L 134.4 18.6 L 134.4 10.4 L 137.3 10.4 L 137.3 7.1 L 134.4 7.1 L 134.4 3.2 L 130.7 3.2 C 130.7 3.2 130.67 5.57 130.7 5.6 C 130.7 6.6 130.3 7.1 129.2 7.1 C 129.22 7.14 128.2 7.1 128.2 7.1 L 128.2 10.4 L 130.3 10.4 C 130.3 10.4 130.25 17.56 130.3 17.6 C 130.3 20.4 131.7 21.8 134.6 21.8 C 134.62 21.84 137.1 21.8 137.1 21.8 Z M 158.7 18.1 C 158.7 18.1 155.5 16.7 155.5 16.7 C 155.1 17.9 154.4 18.9 152.7 18.9 C 151.1 18.9 150.2 17.8 150.2 15.9 C 150.2 15.9 150.2 13.1 150.2 13.1 C 150.2 11.3 151.1 10.1 152.7 10.1 C 154.2 10.1 155 11 155.3 12.1 C 155.3 12.1 158.6 10.6 158.6 10.6 C 157.8 8.2 155.7 6.8 152.7 6.8 C 150.5 6.8 148.8 7.5 147.6 8.9 C 146.5 10.2 145.9 12.1 145.9 14.5 C 145.9 16.8 146.5 18.8 147.6 20.1 C 148.8 21.4 150.5 22.2 152.7 22.2 C 155.7 22.2 157.7 20.9 158.7 18.1 Z M 172.2 20.1 C 173.3 18.8 174 16.8 174 14.5 C 174 12.1 173.3 10.2 172.2 8.8 C 171 7.5 169.3 6.8 167.1 6.8 C 164.9 6.8 163.2 7.5 162.1 8.8 C 160.9 10.2 160.2 12.1 160.2 14.5 C 160.2 16.8 160.9 18.8 162.1 20.1 C 163.2 21.4 164.9 22.2 167.1 22.2 C 169.3 22.2 171 21.4 172.2 20.1 Z M 164.5 16 C 164.5 16 164.5 13 164.5 13 C 164.5 11.1 165.5 10.1 167.1 10.1 C 168.8 10.1 169.7 11.1 169.7 13 C 169.7 13 169.7 16 169.7 16 C 169.7 17.9 168.8 18.9 167.1 18.9 C 165.5 18.9 164.5 17.9 164.5 16 Z M 181.1 21.8 C 181.1 21.8 181.07 12.32 181.1 12.3 C 181.1 11.6 181.4 11.1 181.9 10.7 C 182.4 10.3 183.1 10.2 183.7 10.2 C 185.3 10.2 185.8 11.1 185.8 13 C 185.78 12.96 185.8 21.8 185.8 21.8 L 189.9 21.8 C 189.9 21.8 189.92 12.63 189.9 12.6 C 189.9 8.9 188.4 6.8 185.3 6.8 C 183 6.8 181.8 8.1 181.2 9.6 C 181.24 9.63 181.1 9.6 181.1 9.6 L 181.1 7.1 L 176.9 7.1 L 176.9 21.8 L 181.1 21.8 Z M 201.2 21.8 L 201.2 18.6 L 198.5 18.6 L 198.5 10.4 L 201.5 10.4 L 201.5 7.1 L 198.5 7.1 L 198.5 3.2 L 194.8 3.2 C 194.8 3.2 194.82 5.57 194.8 5.6 C 194.8 6.6 194.5 7.1 193.4 7.1 C 193.37 7.14 192.3 7.1 192.3 7.1 L 192.3 10.4 L 194.4 10.4 C 194.4 10.4 194.4 17.56 194.4 17.6 C 194.4 20.4 195.9 21.8 198.8 21.8 C 198.77 21.84 201.2 21.8 201.2 21.8 Z M 216.1 12.2 C 216.13 12.18 216.1 21.8 216.1 21.8 L 212.4 21.8 L 212.4 19.3 C 212.4 19.3 212.24 19.26 212.2 19.3 C 211.8 21.2 210.2 22.2 207.9 22.2 C 205 22.2 203.4 20.5 203.4 17.9 C 203.4 14.8 205.8 13.3 209.7 13.3 C 209.66 13.3 212 13.3 212 13.3 C 212 13.3 211.99 12.38 212 12.4 C 212 10.9 211.3 10.1 209.5 10.1 C 207.9 10.1 207 10.9 206.4 11.8 C 206.4 11.8 203.9 9.6 203.9 9.6 C 205.1 7.8 206.7 6.8 209.9 6.8 C 214 6.8 216.1 8.7 216.1 12.2 Z M 212 15.7 C 212 15.7 209.97 15.65 210 15.7 C 208.3 15.7 207.5 16.2 207.5 17.3 C 207.5 17.3 207.5 17.7 207.5 17.7 C 207.5 18.8 208.2 19.3 209.5 19.3 C 210.8 19.3 212 18.7 212 17.4 C 211.99 17.39 212 15.7 212 15.7 Z M 224.3 3.5 C 224.3 3.5 224.3 2.9 224.3 2.9 C 224.3 1.7 223.6 0.9 221.9 0.9 C 220.2 0.9 219.5 1.7 219.5 2.9 C 219.5 2.9 219.5 3.5 219.5 3.5 C 219.5 4.7 220.2 5.6 221.9 5.6 C 223.6 5.6 224.3 4.7 224.3 3.5 Z M 219.8 21.8 L 224 21.8 L 224 7.1 L 219.8 7.1 L 219.8 21.8 Z M 232 21.8 C 232 21.8 231.98 12.32 232 12.3 C 232 11.6 232.3 11.1 232.8 10.7 C 233.3 10.3 234 10.2 234.6 10.2 C 236.2 10.2 236.7 11.1 236.7 13 C 236.68 12.96 236.7 21.8 236.7 21.8 L 240.8 21.8 C 240.8 21.8 240.83 12.63 240.8 12.6 C 240.8 8.9 239.3 6.8 236.2 6.8 C 233.9 6.8 232.7 8.1 232.1 9.6 C 232.15 9.63 232 9.6 232 9.6 L 232 7.1 L 227.8 7.1 L 227.8 21.8 L 232 21.8 Z M 257.1 21.8 L 257.1 18.6 L 255.3 18.6 L 255.3 1.1 L 251.1 1.1 C 251.1 1.1 251.13 17.81 251.1 17.8 C 251.1 20.4 252.4 21.8 255.2 21.8 C 255.25 21.84 257.1 21.8 257.1 21.8 Z M 271.9 19.7 C 271.9 19.7 269.8 17.2 269.8 17.2 C 268.9 18.1 267.9 18.9 266.2 18.9 C 264 18.9 263 17.7 263 15.8 C 262.97 15.76 263 15.5 263 15.5 L 272.4 15.5 C 272.4 15.5 272.41 14.31 272.4 14.3 C 272.4 12.3 271.9 10.4 270.8 9.1 C 269.7 7.7 268 6.8 265.6 6.8 C 263.4 6.8 261.7 7.6 260.5 8.9 C 259.3 10.2 258.7 12.2 258.7 14.5 C 258.7 16.8 259.3 18.8 260.5 20.1 C 261.7 21.4 263.5 22.2 265.7 22.2 C 268.4 22.2 270.6 21.3 271.9 19.7 Z M 268.1 12.9 C 268.13 12.85 268.1 13.1 268.1 13.1 L 263 13.1 C 263 13.1 262.97 12.88 263 12.9 C 263 11.1 264 9.9 265.7 9.9 C 267.3 9.9 268.1 11.1 268.1 12.9 Z M 284 21.8 L 288.2 21.8 L 288.2 7.1 L 284 7.1 C 284 7.1 284.03 16.69 284 16.7 C 284 17.4 283.7 17.9 283.2 18.3 C 282.7 18.6 282.1 18.8 281.4 18.8 C 279.9 18.8 279.3 17.8 279.3 16 C 279.32 16.02 279.3 7.1 279.3 7.1 L 275.2 7.1 C 275.2 7.1 275.18 16.38 275.2 16.4 C 275.2 20.1 276.7 22.2 279.8 22.2 C 281 22.2 281.9 21.9 282.5 21.3 C 283.2 20.8 283.6 20.1 283.9 19.4 C 283.89 19.38 284 19.4 284 19.4 L 284 21.8 Z M 303.9 18.1 C 303.9 18.1 300.7 16.7 300.7 16.7 C 300.3 17.9 299.6 18.9 298 18.9 C 296.3 18.9 295.4 17.8 295.4 15.9 C 295.4 15.9 295.4 13.1 295.4 13.1 C 295.4 11.3 296.3 10.1 298 10.1 C 299.4 10.1 300.2 11 300.5 12.1 C 300.5 12.1 303.9 10.6 303.9 10.6 C 303 8.2 301 6.8 298 6.8 C 295.8 6.8 294 7.5 292.9 8.9 C 291.7 10.2 291.1 12.1 291.1 14.5 C 291.1 16.8 291.7 18.8 292.9 20.1 C 294 21.4 295.8 22.2 298 22.2 C 300.9 22.2 303 20.9 303.9 18.1 Z M 311 3.5 C 311 3.5 311 2.9 311 2.9 C 311 1.7 310.3 0.9 308.6 0.9 C 306.9 0.9 306.2 1.7 306.2 2.9 C 306.2 2.9 306.2 3.5 306.2 3.5 C 306.2 4.7 306.9 5.6 308.6 5.6 C 310.3 5.6 311 4.7 311 3.5 Z M 306.5 21.8 L 310.7 21.8 L 310.7 7.1 L 306.5 7.1 L 306.5 21.8 Z M 318.7 21.8 C 318.7 21.8 318.66 12.32 318.7 12.3 C 318.7 11.6 319 11.1 319.5 10.7 C 320 10.3 320.7 10.2 321.3 10.2 C 322.9 10.2 323.4 11.1 323.4 13 C 323.37 12.96 323.4 21.8 323.4 21.8 L 327.5 21.8 C 327.5 21.8 327.51 12.63 327.5 12.6 C 327.5 8.9 325.9 6.8 322.9 6.8 C 320.6 6.8 319.4 8.1 318.8 9.6 C 318.83 9.63 318.7 9.6 318.7 9.6 L 318.7 7.1 L 314.5 7.1 L 314.5 21.8 L 318.7 21.8 Z M 343.5 19.7 C 343.5 19.7 341.4 17.2 341.4 17.2 C 340.5 18.1 339.5 18.9 337.8 18.9 C 335.6 18.9 334.6 17.7 334.6 15.8 C 334.57 15.76 334.6 15.5 334.6 15.5 L 344 15.5 C 344 15.5 344 14.31 344 14.3 C 344 12.3 343.5 10.4 342.4 9.1 C 341.3 7.7 339.6 6.8 337.2 6.8 C 335 6.8 333.3 7.6 332.1 8.9 C 330.9 10.2 330.3 12.2 330.3 14.5 C 330.3 16.8 330.9 18.8 332.1 20.1 C 333.3 21.4 335.1 22.2 337.3 22.2 C 340 22.2 342.2 21.3 343.5 19.7 Z M 339.7 12.9 C 339.72 12.85 339.7 13.1 339.7 13.1 L 334.6 13.1 C 334.6 13.1 334.57 12.88 334.6 12.9 C 334.6 11.1 335.6 9.9 337.3 9.9 C 338.9 9.9 339.7 11.1 339.7 12.9 Z M 358 3.5 C 358 3.5 358 2.9 358 2.9 C 358 1.7 357.3 0.9 355.6 0.9 C 353.9 0.9 353.2 1.7 353.2 2.9 C 353.2 2.9 353.2 3.5 353.2 3.5 C 353.2 4.7 353.9 5.6 355.6 5.6 C 357.3 5.6 358 4.7 358 3.5 Z M 353.6 21.8 L 357.7 21.8 L 357.7 7.1 L 353.6 7.1 L 353.6 21.8 Z M 365.7 21.8 C 365.7 21.8 365.7 12.32 365.7 12.3 C 365.7 11.6 366 11.1 366.5 10.7 C 367 10.3 367.7 10.2 368.4 10.2 C 369.9 10.2 370.4 11.1 370.4 13 C 370.41 12.96 370.4 21.8 370.4 21.8 L 374.6 21.8 C 374.6 21.8 374.55 12.63 374.6 12.6 C 374.6 8.9 373 6.8 370 6.8 C 367.6 6.8 366.4 8.1 365.9 9.6 C 365.87 9.63 365.7 9.6 365.7 9.6 L 365.7 7.1 L 361.6 7.1 L 361.6 21.8 L 365.7 21.8 Z M 390.1 18.1 C 390.1 18.1 386.9 16.7 386.9 16.7 C 386.5 17.9 385.8 18.9 384.2 18.9 C 382.5 18.9 381.6 17.8 381.6 15.9 C 381.6 15.9 381.6 13.1 381.6 13.1 C 381.6 11.3 382.5 10.1 384.2 10.1 C 385.6 10.1 386.5 11 386.7 12.1 C 386.7 12.1 390.1 10.6 390.1 10.6 C 389.2 8.2 387.2 6.8 384.2 6.8 C 382 6.8 380.2 7.5 379.1 8.9 C 377.9 10.2 377.3 12.1 377.3 14.5 C 377.3 16.8 377.9 18.8 379.1 20.1 C 380.2 21.4 382 22.2 384.2 22.2 C 387.1 22.2 389.2 20.9 390.1 18.1 Z M 398.7 21.8 L 398.7 18.6 L 396.9 18.6 L 396.9 1.1 L 392.7 1.1 C 392.7 1.1 392.72 17.81 392.7 17.8 C 392.7 20.4 394 21.8 396.8 21.8 C 396.84 21.84 398.7 21.8 398.7 21.8 Z M 409.9 21.8 L 414 21.8 L 414 7.1 L 409.9 7.1 C 409.9 7.1 409.89 16.69 409.9 16.7 C 409.9 17.4 409.6 17.9 409.1 18.3 C 408.6 18.6 407.9 18.8 407.3 18.8 C 405.7 18.8 405.2 17.8 405.2 16 C 405.18 16.02 405.2 7.1 405.2 7.1 L 401 7.1 C 401 7.1 401.04 16.38 401 16.4 C 401 20.1 402.6 22.2 405.6 22.2 C 406.8 22.2 407.7 21.9 408.4 21.3 C 409.1 20.8 409.5 20.1 409.7 19.4 C 409.75 19.38 409.9 19.4 409.9 19.4 L 409.9 21.8 Z M 426.9 21.8 L 431.1 21.8 L 431.1 1.1 L 426.9 1.1 L 426.9 9.6 C 426.9 9.6 426.77 9.6 426.8 9.6 C 426.4 8 424.7 6.8 422.8 6.8 C 419.1 6.8 417.2 9.5 417.2 14.5 C 417.2 19.5 419.1 22.2 422.8 22.2 C 423.7 22.2 424.7 21.9 425.4 21.4 C 426 20.9 426.5 20.2 426.8 19.4 C 426.77 19.38 426.9 19.4 426.9 19.4 L 426.9 21.8 Z M 421.5 15.8 C 421.5 15.8 421.5 13.2 421.5 13.2 C 421.5 11.3 422.6 10.2 424.2 10.2 C 425.8 10.2 426.9 11 426.9 12.3 C 426.9 12.3 426.9 16.7 426.9 16.7 C 426.9 18 425.8 18.8 424.2 18.8 C 422.6 18.8 421.5 17.6 421.5 15.8 Z M 447.2 19.7 C 447.2 19.7 445.1 17.2 445.1 17.2 C 444.2 18.1 443.2 18.9 441.5 18.9 C 439.3 18.9 438.3 17.7 438.3 15.8 C 438.28 15.76 438.3 15.5 438.3 15.5 L 447.7 15.5 C 447.7 15.5 447.71 14.31 447.7 14.3 C 447.7 12.3 447.2 10.4 446.1 9.1 C 445 7.7 443.3 6.8 440.9 6.8 C 438.7 6.8 437 7.6 435.8 8.9 C 434.6 10.2 434 12.2 434 14.5 C 434 16.8 434.6 18.8 435.8 20.1 C 437 21.4 438.8 22.2 441.1 22.2 C 443.7 22.2 445.9 21.3 447.2 19.7 Z M 443.4 12.9 C 443.43 12.85 443.4 13.1 443.4 13.1 L 438.3 13.1 C 438.3 13.1 438.28 12.88 438.3 12.9 C 438.3 11.1 439.3 9.9 441 9.9 C 442.6 9.9 443.4 11.1 443.4 12.9 Z M 455.8 19.9 C 455.8 19.9 455.8 19.3 455.8 19.3 C 455.8 18 455 17.1 453.3 17.1 C 451.7 17.1 450.9 18 450.9 19.3 C 450.9 19.3 450.9 19.9 450.9 19.9 C 450.9 21.2 451.7 22.1 453.3 22.1 C 455 22.1 455.8 21.2 455.8 19.9 Z M 455.8 9.7 C 455.8 9.7 455.8 9.1 455.8 9.1 C 455.8 7.8 455 6.9 453.3 6.9 C 451.7 6.9 450.9 7.8 450.9 9.1 C 450.9 9.1 450.9 9.7 450.9 9.7 C 450.9 11 451.7 11.9 453.3 11.9 C 455 11.9 455.8 11 455.8 9.7 Z " stroke="none" fill="#ffffff"/>  </g></svg>